<?xml version="1.0" standalone="no"?><!DOCTYPE svg PUBLIC "-//W3C//DTD SVG 1.1//EN" "http://www.w3.org/Graphics/SVG/1.1/DTD/svg11.dtd"><svg t="1665374237770" class="icon" viewBox="0 0 1024 1024" version="1.1" xmlns="http://www.w3.org/2000/svg" p-id="2633" xmlns:xlink="http://www.w3.org/1999/xlink" width="200" height="200"><path d="M441.191489 991.319149a70.808511 32.680851 0 1 0 141.617022 0 70.808511 32.680851 0 1 0-141.617022 0Z" fill="#999999" p-id="2634"></path><path d="M690.241362 640.827915c-2.28766 2.026213-5.882553 5.011064-10.762894 8.998128a479.188426 479.188426 0 0 0-161.051234 250.182808c-2.614468 10.022128-4.793191 15.054979-6.427234 15.054979-1.677617 0-3.899915-5.228936-6.645106-15.643234a479.144851 479.144851 0 0 0-171.683405-258.483745s-35.491404-34.728851-50.241361-54.380936a302.188936 302.188936 0 0 1-72.486128-196.891234C210.944 222.578383 345.71983 87.148936 512 87.148936s301.056 135.429447 301.056 302.515745a302.188936 302.188936 0 0 1-73.270468 197.806298c-14.597447 19.259915-31.155745 37.147234-49.54417 53.356936z" fill="#999999" p-id="2635"></path><path d="M718.390468 662.876596c-2.658043 2.353021-6.819404 5.817191-12.462298 10.414298A554.855489 554.855489 0 0 0 519.451234 962.995745c-3.050213 11.612596-5.533957 17.429787-7.451234 17.429787-1.960851 0-4.509957-6.035064-7.690894-18.105192a554.790128 554.790128 0 0 0-193.383489-295.06451l-5.425021-4.248511s-41.068936-40.219234-58.171915-62.965106A349.902979 349.902979 0 0 1 163.404255 372.060596C163.404255 178.589957 319.466213 21.787234 512 21.787234s348.595745 156.824511 348.595745 350.273362a349.902979 349.902979 0 0 1-84.83949 229.049191 420.907574 420.907574 0 0 1-57.365787 61.766809z" fill="#FFFFFF" p-id="2636"></path><path d="M512 370.382979m-305.021277 0a305.021277 305.021277 0 1 0 610.042554 0 305.021277 305.021277 0 1 0-610.042554 0Z" fill="#FF6732" p-id="2637"></path><path d="M464.569191 454.873872V417.661277h-34.772425l44.838128-143.970043-41.177873-9.150638-17.996255 53.988766h-9.45566l27.451915-92.421447L394.109277 217.87234l-33.857362 114.382979a11.50366 11.50366 0 0 0 0 8.235575c1.024 2.636255 2.483745 5.032851 4.422808 7.168a20.632511 20.632511 0 0 0 7.01549 5.032851 19.194553 19.194553 0 0 0 7.778042 1.830127h24.096681l-23.486638 71.68c-1.41617 4.074213-1.830128 7.843404-1.220085 11.285788 0.610043 3.46417 1.830128 6.514383 3.660255 9.150638a18.170553 18.170553 0 0 0 7.168 6.100425 21.787234 21.787234 0 0 0 9.60817 2.135149h65.274553z m49.108426-53.988766c2.83234 0 5.599319-0.413957 8.235574-1.220085 2.636255-0.806128 5.076426-1.939064 7.320511-3.355234l32.637277-25.011744 30.807149 24.09668c5.294298 3.660255 10.675745 5.490383 16.166127 5.490383h41.177873l3.965276-38.127659h-33.55234l-23.486638-18.301277 35.687489-27.451915c7.930553-4.684255 11.89583-11.590809 11.89583-20.741446v-46.058213a14.183489 14.183489 0 0 0-1.830128-7.168 17.930894 17.930894 0 0 0-4.88034-5.490383 24.053106 24.053106 0 0 0-6.557958-3.507745 21.678298 21.678298 0 0 0-7.168-1.220085h-82.050723l3.965276-14.030979h-46.973276l-30.197107 106.757447h34.467405l25.011744 19.826383-21.961532 17.386213h-33.247319l3.050213 38.127659h37.517617z m49.413447-82.965787l-36.907575-29.282042 4.880341-17.691234h66.799659v19.21634l-34.772425 27.756936z m70.154893 139.699745l4.880341-35.382468-144.885107-10.370724-4.88034 35.382468 144.885106 10.370724z m14.946043 53.988766l3.660255-35.382468-173.557106-10.065702-3.660255 35.077446 173.557106 10.370724z m-183.622809-0.610043v-37.822638H370.622638v37.822638h93.946553z" fill="#FFFFFF" p-id="2638"></path></svg>