<?xml version="1.0" encoding="UTF-8"?>
<svg width="20px" height="20px" viewBox="0 0 20 20" version="1.1" xmlns="http://www.w3.org/2000/svg" xmlns:xlink="http://www.w3.org/1999/xlink">
    <!-- Generator: Sketch 52.2 (67145) - http://www.bohemiancoding.com/sketch -->
    <title>ic_reply</title>
    <desc>Created with Sketch.</desc>
    <g id="⚠️-通知发布" stroke="none" stroke-width="1" fill="none" fill-rule="evenodd">
        <g id="新建页-通知发布-有发布" transform="translate(-285.000000, -255.000000)">
            <g id="list/replyone" transform="translate(34.000000, 236.000000)">
                <g id="Group">
                    <g id="Group-4" transform="translate(14.000000, 15.000000)">
                        <g id="ic_link" transform="translate(237.000000, 4.000000)">
                            <g id="ic_reply">
                                <g>
                                    <path d="M17.9276694,3.19081506 C17.3075616,2.58353994 16.4823534,2.24918514 15.6039213,2.24918514 C14.7264854,2.24918514 13.9018501,2.58353994 13.2819415,3.19081506 L9.19844002,7.18807976 L9.20085589,7.19093207 L4.66087853,11.6353765 C4.2957576,11.9926961 4.09466713,12.467302 4.09466713,12.9716499 C4.09466713,13.4756078 4.29565798,13.9504087 4.66097815,14.3089473 C5.02602436,14.6656818 5.510893,14.8621503 6.02642083,14.8621503 C6.54294491,14.8621503 7.02781354,14.6655842 7.39158955,14.3087766 L15.0897633,6.77334816 L14.273596,5.97455344 L6.57621923,13.5098844 C6.43766754,13.6453084 6.23744877,13.7230036 6.02681933,13.7230036 C5.81628951,13.7230036 5.61597111,13.6453084 5.47761868,13.5101769 C5.33022538,13.3656108 5.24910677,13.1743838 5.24910677,12.9716499 C5.24910677,12.7688186 5.33012576,12.5780547 5.47751905,12.4341712 L14.1538483,3.9411204 L14.1515071,3.93797554 C14.5468888,3.57697474 15.0598015,3.37899477 15.6039213,3.37899477 C16.1726731,3.37899477 16.7081506,3.59572201 17.1114274,3.98902468 C17.5132099,4.38269302 17.7346485,4.9067634 17.7346485,5.4647934 C17.7346485,6.02265275 17.5133095,6.54630869 17.1114274,6.93924567 L13.1844597,10.7846063 L13.1172386,10.8509897 L8.21512901,15.6486581 C7.5568902,16.2929645 6.68177056,16.6477975 5.75111069,16.6477975 C4.81908099,16.6477975 3.94366248,16.2929645 3.28609612,15.6486581 C2.62813128,15.0049855 2.2657251,14.1483887 2.2657251,13.2366715 C2.2657251,12.3243693 2.62813128,11.4674068 3.28619575,10.8237342 L11.2568653,3.02177268 L10.4409968,2.22222222 L2.4698541,10.0252564 C1.5936635,10.8828771 1.11111111,12.0235353 1.11111111,13.2370616 C1.11111111,14.4499053 1.5936635,15.5901734 2.4698541,16.4478185 C3.34601979,17.3054391 4.51077049,17.7777778 5.74944199,17.7777778 L5.75121031,17.7777778 C6.98988181,17.7777778 8.15453289,17.3054391 9.03069858,16.4478185 L15.9638867,9.66252471 L16.0355909,9.59060735 L17.9276694,7.73869861 C18.5475033,7.13198421 18.8888889,6.32424249 18.8888889,5.46450086 C18.8888889,4.6047836 18.5475033,3.79723691 17.9276694,3.19081506 Z" id="Fill-1" fill="#3B77E3"></path>
                                    <polygon id="Clip-2" points="0 0 20 0 20 20 0 20"></polygon>
                                </g>
                            </g>
                        </g>
                    </g>
                </g>
            </g>
        </g>
    </g>
</svg>