<?xml version="1.0" encoding="UTF-8"?>
<svg width="16px" height="16px" viewBox="0 0 16 16" version="1.1" xmlns="http://www.w3.org/2000/svg" xmlns:xlink="http://www.w3.org/1999/xlink">
    <!-- Generator: Sketch 52.5 (67469) - http://www.bohemiancoding.com/sketch -->
    <title>ic_home</title>
    <desc>Created with Sketch.</desc>
    <g id="Page-1" stroke="none" stroke-width="1" fill="none" fill-rule="evenodd">
        <g id="列表页" transform="translate(-24.000000, -80.000000)" fill-rule="nonzero">
            <g id="分组" transform="translate(24.000000, 72.000000)">
                <g id="分组-2" transform="translate(0.000000, 8.000000)">
                    <g id="分组" transform="translate(1.333333, 1.333333)">
                        <path d="M10.6718494,6.66666667 L10.6718494,6.66666667 C11.0400392,6.66666667 11.3385161,6.9651435 11.3385161,7.33333333 L11.3385161,11.6666667 C11.3385161,12.2189514 10.8908008,12.6666667 10.3385161,12.6666667 L3.02138991,12.6666667 C2.46910516,12.6666667 2.02138991,12.2189514 2.02138991,11.6666667 L2.02138991,7.33333333 C2.02138991,6.9651435 2.31986675,6.66666667 2.68805658,6.66666667 L2.68805658,6.66666667 C3.05624641,6.66666667 3.35472325,6.9651435 3.35472325,7.33333333 L3.35472325,11.3333333 L10.0051827,11.3333333 L10.0051827,7.33333333 C10.0051827,6.9651435 10.3036596,6.66666667 10.6718494,6.66666667 Z" id="路径-9" fill="#CED0DA"></path>
                        <path d="M5.33333333,8.66666667 L5.33333333,10 C5.33333333,10.3681898 5.0348565,10.6666667 4.66666667,10.6666667 L4.66666667,10.6666667 C4.29847683,10.6666667 4,10.3681898 4,10 L4,8.33333333 C4,7.78104858 4.44771525,7.33333333 5,7.33333333 L8.33333333,7.33333333 C8.88561808,7.33333333 9.33333333,7.78104858 9.33333333,8.33333333 L9.33333333,10 C9.33333333,10.3681898 9.0348565,10.6666667 8.66666667,10.6666667 L8.66666667,10.6666667 C8.29847683,10.6666667 8,10.3681898 8,10 L8,8.66666667 L5.33333333,8.66666667 Z" id="路径-11" fill="#3B77E3"></path>
                        <path d="M6.58026347,2.5633938 L1.77079542,7.01174646 C1.49612241,7.26579585 1.07090258,7.26127185 0.801696899,7.00143602 L0.801696899,7.00143602 C0.549140115,6.75766961 0.542014106,6.35532017 0.785780514,6.10276338 C0.79280905,6.09548139 0.800010523,6.08836832 0.807378769,6.08143027 L5.88244724,1.30266517 C6.26338988,0.943963533 6.8564452,0.939571717 7.24265843,1.29259225 L12.4896849,6.08866857 C12.7510586,6.32757875 12.7692689,6.73313893 12.5303587,6.9945126 C12.5247378,7.00066195 12.5189976,7.00670118 12.5131414,7.01262682 L12.5131414,7.01262682 C12.2509065,7.27797003 11.8263973,7.29026543 11.5492443,7.04054496 L6.58026347,2.5633938 Z" id="路径-7" fill="#CED0DA"></path>
                        <rect id="矩形" x="0" y="0" width="13.3333333" height="13.3333333"></rect>
                    </g>
                </g>
            </g>
        </g>
    </g>
</svg>