<?xml version="1.0" encoding="UTF-8"?>
<svg width="24px" height="24px" viewBox="0 0 24 24" version="1.1" xmlns="http://www.w3.org/2000/svg" xmlns:xlink="http://www.w3.org/1999/xlink">
    <!-- Generator: Sketch 52.2 (67145) - http://www.bohemiancoding.com/sketch -->
    <title>ic/open</title>
    <desc>Created with Sketch.</desc>
    <g id="⚠️-通知发布" stroke="none" stroke-width="1" fill="none" fill-rule="evenodd">
        <g id="新建页-通知发布-有发布" transform="translate(-1154.000000, -440.000000)">
            <g id="Group-7" transform="translate(1098.000000, 440.000000)">
                <g id="分组" transform="translate(56.000000, 0.000000)">
                    <g id="Group">
                        <path d="M11.410431,16.7631725 L7.15924417,12.0458747 C6.91154469,11.7708023 6.95791427,11.3666606 7.26279796,11.1437226 C7.56842239,10.9202513 8.01626661,10.9619855 8.26396609,11.2369246 L11.9791621,15.3594101 L15.740135,11.2327912 C15.9902048,10.9598522 16.4386417,10.921318 16.7418957,11.1469227 C17.0445573,11.3729274 17.0873713,11.7770691 16.8367089,12.0500081 L12.5110049,16.767306 C12.2246394,17.0793124 11.6933892,17.0771791 11.410431,16.7631725 Z M11.410431,12.7631725 L7.15924417,8.04587468 C6.91154469,7.77080231 6.95791427,7.36666059 7.26279796,7.14372264 C7.56842239,6.92025133 8.01626661,6.96198553 8.26396609,7.23692457 L11.9791621,11.3594101 L15.740135,7.23279115 C15.9902048,6.95985216 16.4386417,6.92131802 16.7418957,7.1469227 C17.0445573,7.37292739 17.0873713,7.77706911 16.8367089,8.0500081 L12.5110049,12.767306 C12.2246394,13.0793124 11.6933892,13.0771791 11.410431,12.7631725 Z" id="Combined-Shape" fill="#FF7F5B"></path>
                        <rect id="Rectangle" fill-rule="nonzero" x="0" y="0" width="24" height="24"></rect>
                    </g>
                </g>
            </g>
        </g>
    </g>
</svg>