<?xml version="1.0" encoding="UTF-8"?>
<svg width="72px" height="72px" viewBox="0 0 72 72" version="1.1" xmlns="http://www.w3.org/2000/svg" xmlns:xlink="http://www.w3.org/1999/xlink">
    <!-- Generator: Sketch 61 (89581) - https://sketch.com -->
    <title>ic_point</title>
    <desc>Created with Sketch.</desc>
    <defs>
        <linearGradient x1="100%" y1="48.6391345%" x2="18.1303139%" y2="51.6895532%" id="linearGradient-1">
            <stop stop-color="#1A1A1A" stop-opacity="0" offset="0%"></stop>
            <stop stop-color="#1A1A1A" stop-opacity="0.69807146" offset="100%"></stop>
        </linearGradient>
        <path d="M0.0869828543,1.9480825 C0.0882758427,2.40532777 0.248723946,2.72691337 0.507204076,2.87806688 L0.507204076,2.87806688 L0.902505885,3.10929153 C0.644025755,2.95813802 0.483695196,2.63655243 0.482402208,2.17918888 L0.482402208,2.17918888 C0.479816231,1.25925775 0.47711271,0.29733953 0.476995166,0.24671848 L0.476995166,0.24671848 L0.081575812,0.0156120994 C0.081575812,0.0661148756 0.0843968775,1.02791482 0.0869828543,1.9480825" id="path-2"></path>
        <path d="M0.446198534,1.00426012 L0.841617887,1.23548478 C0.583020213,1.084213 0.422689654,0.762627402 0.421279121,0.305382127 L0.421279121,0.305382127 L0.0259773119,0.0740391988 C0.0272703003,0.531521022 0.187600859,0.852988342 0.446198534,1.00426012" id="path-4"></path>
        <path d="M0.0259773119,1.96641489 L0.421279121,2.19775782 C0.419868589,1.68078443 0.416107168,0.335896685 0.415872079,0.265169143 L0.415872079,0.265169143 L0.0205702696,0.0340627624 C0.020687814,0.10467203 0.0244492347,1.44967805 0.0259773119,1.96641489" id="path-6"></path>
        <path d="M0.503207566,1.02259251 L0.898744465,1.25381717 C0.640029245,1.10266366 0.479698687,0.780841518 0.478405699,0.323359696 L0.478405699,0.323359696 L0.0831038892,0.0922533148 C0.0842793331,0.549735138 0.244609892,0.871439005 0.503207566,1.02259251" id="path-8"></path>
        <path d="M0.0831038892,1.984629 L0.478405699,2.21573538 C0.476877621,1.69888027 0.473233745,0.353992527 0.472998656,0.283264986 L0.472998656,0.283264986 L0.0775793025,0.0520403314 C0.0778143913,0.122886146 0.081575812,1.46765562 0.0831038892,1.984629" id="path-10"></path>
        <path d="M0.0220983468,2.00307967 C0.0232737907,2.46044322 0.183604349,2.78202881 0.442319568,2.93318232 L0.442319568,2.93318232 L0.837738922,3.16452525 C0.579023703,3.01325346 0.418810689,2.6915496 0.417400156,2.23442259 L0.417400156,2.23442259 C0.414931724,1.31425492 0.412110658,0.352336699 0.411993114,0.301715649 L0.411993114,0.301715649 L0.0166913045,0.0704909944 C0.0168088489,0.121230318 0.0193948256,1.08314853 0.0220983468,2.00307967" id="path-12"></path>
        <path d="M0.079224924,2.02117551 C0.0805179124,2.47865733 0.240848471,2.80047947 0.499446146,2.95175125 L0.499446146,2.95175125 L0.8948655,3.18297591 C0.63615028,3.03158585 0.475819722,2.70988199 0.474526733,2.25251844 L0.474526733,2.25251844 C0.471823212,1.33235076 0.469237236,0.370432541 0.469002147,0.319811491 L0.469002147,0.319811491 L0.0737003373,0.0887051104 C0.0738178817,0.13932616 0.0765214029,1.10124438 0.079224924,2.02117551" id="path-14"></path>
        <path d="M0.438440603,0.959079654 L0.833742413,1.19042258 C0.575144738,1.03903253 0.414814179,0.717446933 0.413403647,0.260319931 L0.413403647,0.260319931 L0.0181018372,0.0289770027 C0.0193948256,0.486340552 0.179725384,0.808044419 0.438440603,0.959079654" id="path-16"></path>
        <path d="M0.0181018372,2.03962617 L0.413403647,2.2709691 C0.412110658,1.75399572 0.408231693,0.409107969 0.407996604,0.338380428 L0.407996604,0.338380428 L0.0125772506,0.107155773 C0.0128123393,0.177883315 0.0165737601,1.52277106 0.0181018372,2.03962617" id="path-18"></path>
        <path d="M0.495567181,0.977766864 L0.89086899,1.20887324 C0.632271315,1.05748319 0.471940757,0.736015869 0.470647768,0.278415773 L0.470647768,0.278415773 L0.0752284145,0.0471911187 C0.0766389473,0.504672941 0.236734417,0.826376808 0.495567181,0.977766864" id="path-20"></path>
        <path d="M0.0752284145,1.93956681 L0.470647768,2.17079146 C0.469119691,1.65381808 0.46535827,0.309048605 0.465123182,0.23820279 L0.465123182,0.23820279 L0.0698213722,0.00697813535 C0.070056461,0.0778239502 0.0738178817,1.42259342 0.0752284145,1.93956681" id="path-22"></path>
        <path d="M0.0142228721,1.95801747 C0.0155158605,2.41526275 0.175846419,2.73696661 0.434444094,2.88823839 L0.434444094,2.88823839 L0.829745903,3.11934478 C0.571265773,2.96807299 0.41081767,2.64660567 0.409524682,2.18924212 L0.409524682,2.18924212 C0.407056249,1.26919272 0.404235184,0.307392776 0.404235184,0.256653453 L0.404235184,0.256653453 L0.00869828543,0.0254287983 C0.00893337422,0.076049848 0.0116368954,1.03796807 0.0142228721,1.95801747" id="path-24"></path>
        <path d="M0.0707617274,1.97658641 C0.0719371714,2.43371341 0.232385274,2.755299 0.490865405,2.90668906 L0.490865405,2.90668906 L0.886402303,3.13779544 C0.627804628,2.98664193 0.46747407,2.66505634 0.466181081,2.20769279 L0.466181081,2.20769279 C0.46347756,1.28764338 0.460774039,0.325843439 0.460656495,0.275222389 L0.460656495,0.275222389 L0.0653546851,0.0438794613 C0.0654722295,0.0946187844 0.0681757507,1.05641873 0.0707617274,1.97658641" id="path-26"></path>
    </defs>
    <g id="♦️功能" stroke="none" stroke-width="1" fill="none" fill-rule="evenodd">
        <g id="线路跟踪-搜索结果" transform="translate(-485.000000, -796.000000)">
            <g id="编组-2" transform="translate(45.032154, 191.000000)">
                <g id="ic_point" transform="translate(439.967846, 605.000000)">
                    <g id="编组-4">
                        <polygon id="椭圆形" fill="url(#linearGradient-1)" points="72 58.1705289 72 38.6099611 9.93860994 50 33.6825783 63.9437295"></polygon>
                        <g id="编组-3" transform="translate(7.000000, 7.000000)">
                            <g id="编组" transform="translate(2.938610, 5.832183)">
                                <polygon id="Fill-680" fill="#375ECC" points="42.0213229 38.1323326 42.0280229 40.4657501 23.6766389 51.1115461 23.6700564 48.7781286"></polygon>
                                <polygon id="Fill-682" fill="#4576FF" points="23.7144647 51.1115698 0.119425108 37.3463108 0.112842622 35.0128933 23.7078822 48.7781523"></polygon>
                                <polygon id="Fill-684" fill="#6A91FF" points="23.6700447 48.7780931 0.108740322 35.0128341 27.0535601 19.3598121 50.6148645 33.1248345 48.4123176 34.4044353 46.5002228 33.4120026 40.229817 37.1173924 41.9969794 38.1312327"></polygon>
                                <polygon id="Fill-686" fill="#375ECC" points="50.6149115 33.1248819 50.621494 35.4582994 48.3912066 36.7905318 48.3846241 34.4571143"></polygon>
                                <polygon id="Fill-688" fill="#B4C8FF" points="48.3341623 12.3541426 48.3925819 33.0762478 23.539112 47.5144829 23.4806924 26.7923778"></polygon>
                                <polygon id="Fill-690" fill="#8FACFF" points="23.5390649 47.5145066 2.49462124 35.2089789 2.43620168 14.4868737 23.4806454 26.7924014"></polygon>
                                <polygon id="Fill-692" fill="#B16717" points="23.4806454 26.7923896 2.43620168 14.4868619 27.2897891 0.0486267369 48.3341153 12.3541545"></polygon>
                                <polygon id="Fill-694" fill="#4576FF" points="44.8081712 32.4238986 44.8147537 34.7573161 48.3911596 36.7905555 48.3846946 34.4570197"></polygon>
                                <g transform="translate(40.670362, 19.387074)">
                                    <polygon id="Fill-696" fill="#FFFFFF" points="1.58513322 18.5837798 0.337987161 17.9697039 0.489854523 3.84572136 6.1931087 0.462508446 6.23871592 16.6210314 1.58995254 19.3202687"></polygon>
                                    <path d="M6.42705731,0.0491544585 L0.256211524,3.70971868 L0.101288007,18.1164931 L1.3509025,18.7317517 L1.35748499,19.7283241 L6.47407507,16.7575308 L6.42705731,0.0491544585 Z M5.95923061,0.875886087 L6.00319222,16.4847921 L1.82237308,18.9121188 L1.82108009,18.7286766 L1.81919938,18.4355949 L1.55766309,18.3067951 L0.574639297,17.8227017 L0.723450504,3.98174769 L5.95923061,0.875886087 Z" id="Fill-698" fill="#D9E3FF"></path>
                                </g>
                                <g transform="translate(25.624679, 22.343911)">
                                    <polygon id="Fill-700" fill="#FFFFFF" points="0.288583251 7.41583002 12.2630661 0.42480286 12.3086734 16.5861643 0.484999939 23.399663"></polygon>
                                    <path d="M12.4970147,0.0147250483 L0.0517665527,7.28061978 L0.254883272,23.8048443 L12.5440325,16.7231014 L12.4970147,0.0147250483 Z M12.029188,0.834951636 L12.0731496,16.4492983 L0.715187133,22.9944344 L0.525352931,7.55111123 L12.029188,0.834951636 Z" id="Fill-702" fill="#D9E3FF"></path>
                                </g>
                            </g>
                            <g id="编组" transform="translate(54.305512, 25.455804)">
                                <mask id="mask-3" fill="white">
                                    <use xlink:href="#path-2"></use>
                                </mask>
                                <g id="Clip-705"></g>
                                <path d="M0.902588167,3.10936249 L0.507286357,2.87813784 C0.248688682,2.72698433 0.0882405793,2.40539874 0.0870651354,1.94815346 C0.0843616142,1.02798578 0.0816580931,0.0661858397 0.0815405487,0.01556479 L0.476959902,0.246671171 C0.477077447,0.297410494 0.479780968,1.25921044 0.482366945,2.17925984 C0.483659933,2.63662339 0.643990492,2.95820899 0.902588167,3.10936249" id="Fill-704" fill="#DD6E58" mask="url(#mask-3)"></path>
                            </g>
                            <g id="编组" transform="translate(52.072168, 20.606592)">
                                <path d="M5.59173981,3.42191199 C5.59197489,3.49275781 5.59573632,4.83764556 5.59727148,5.35450067 C5.59973282,6.27525971 4.95723515,7.3951913 4.16145957,7.85752233 C3.36580155,8.3197351 2.718367,7.94918428 2.71566348,7.02842524 C2.71319505,6.1084941 2.71037399,5.14657589 2.71025644,5.09583656 L5.59173981,3.42191199 Z" id="Fill-706" fill="#FF7F5B"></path>
                                <polygon id="Fill-708" fill="#F27A5F" points="2.7102917 5.09587205 -4.70177591e-05 1.83247017 3.05610732 0.0583679626 5.59177507 3.42194748"></polygon>
                            </g>
                            <g id="编组" transform="translate(51.484446, 29.004009)">
                                <mask id="mask-5" fill="white">
                                    <use xlink:href="#path-4"></use>
                                </mask>
                                <g id="Clip-711"></g>
                                <path d="M0.841641396,1.23546112 L0.446222042,1.00423647 C0.187624368,0.85308296 0.0271762647,0.531497367 0.0260008208,0.0741338176 L0.42130263,0.305358472 C0.422713163,0.762722021 0.583043721,1.08430761 0.841641396,1.23546112" id="Fill-710" fill="#E5E5E5" mask="url(#mask-5)"></path>
                            </g>
                            <path d="M54.7824599,25.7024638 C54.7825774,25.7733096 54.7863388,27.1180791 54.7878747,27.6350524 C54.7904529,28.5558115 54.14725,29.6760979 53.3514744,30.1383107 C52.5558164,30.6006417 51.9083818,30.2300909 51.9056783,29.3093318 C51.9043853,28.7923584 51.9005063,27.447589 51.9002712,27.3767432 L54.7824599,25.7024638 Z" id="Fill-712" fill="#FFFFFF"></path>
                            <g id="编组" transform="translate(51.484446, 27.111633)">
                                <mask id="mask-7" fill="white">
                                    <use xlink:href="#path-6"></use>
                                </mask>
                                <g id="Clip-715"></g>
                                <path d="M0.421279121,2.19771051 L0.0259773119,1.96648585 C0.0244492347,1.44963074 0.020687814,0.104742994 0.0205702696,0.034015453 L0.415872079,0.265121834 C0.416107168,0.335967649 0.419868589,1.68073712 0.421279121,2.19771051" id="Fill-714" fill="#858585" mask="url(#mask-7)"></path>
                            </g>
                            <polygon id="Fill-716" fill="#E5E5E5" points="51.90033 27.3767668 49.0160256 24.0949143 52.0721799 22.4390855 54.7825187 25.7024874"></polygon>
                            <g id="编组" transform="translate(48.545836, 30.659838)">
                                <mask id="mask-9" fill="white">
                                    <use xlink:href="#path-8"></use>
                                </mask>
                                <g id="Clip-719"></g>
                                <path d="M0.898685693,1.25382899 L0.503266339,1.02260434 C0.244668664,0.871450832 0.0843381053,0.549746965 0.0831626614,0.0922651422 L0.478464471,0.323489797 C0.479757459,0.780853346 0.640088018,1.10267549 0.898685693,1.25382899" id="Fill-718" fill="#DD6E58" mask="url(#mask-9)"></path>
                            </g>
                            <path d="M51.90033,27.3767668 C51.9005651,27.4476126 51.9043265,28.7923821 51.9057448,29.3093555 C51.908323,30.2301145 51.2658254,31.3500461 50.4700498,31.8122589 C49.6736865,32.2749447 49.0269572,31.9040391 49.0242537,30.9832801 C49.0228432,30.4663067 49.0189642,29.1215372 49.0188467,29.0506914 L51.90033,27.3767668 Z" id="Fill-720" fill="#FF7F5B"></path>
                            <g id="编组" transform="translate(48.545836, 28.767462)">
                                <mask id="mask-11" fill="white">
                                    <use xlink:href="#path-10"></use>
                                </mask>
                                <g id="Clip-723"></g>
                                <path d="M0.478440962,2.21584183 L0.0831391525,1.98461718 C0.0816110753,1.46776207 0.0778496546,0.122874319 0.0776145658,0.0520285041 L0.47303392,0.283253159 C0.473151464,0.354098973 0.476912885,1.69886845 0.478440962,2.21584183" id="Fill-722" fill="#747270" mask="url(#mask-11)"></path>
                            </g>
                            <polygon id="Fill-724" fill="#F27A5F" points="49.0188819 29.0507387 45.7248177 26.1056108 49.0160609 24.0949616 51.9003653 27.3768141"></polygon>
                            <g id="编组" transform="translate(45.724771, 30.423291)">
                                <mask id="mask-13" fill="white">
                                    <use xlink:href="#path-12"></use>
                                </mask>
                                <g id="Clip-727"></g>
                                <path d="M0.837738922,3.16445428 L0.442319568,2.93322963 C0.183721894,2.78207612 0.0232737907,2.46049052 0.0220983468,2.00312698 C0.0193948256,1.08307757 0.0168088489,0.121277627 0.0166913045,0.0705383038 L0.411993114,0.301762958 C0.412110658,0.352384008 0.414814179,1.31418395 0.417400156,2.23435163 C0.418810689,2.69159691 0.579141247,3.01330077 0.837738922,3.16445428" id="Fill-726" fill="#E5E5E5" mask="url(#mask-13)"></path>
                            </g>
                            <g id="编组" transform="translate(42.433528, 26.047172)">
                                <path d="M6.58535435,3.00356687 C6.5854719,3.07441268 6.58923332,4.41918215 6.59076917,4.93615554 C6.59334737,5.85691458 5.95014443,6.97720099 5.15436886,7.43941375 C4.35871083,7.90174479 3.71127629,7.5310757 3.70857276,6.61043493 C3.70610433,5.69038552 3.70328327,4.72846731 3.70316572,4.67784626 L6.58535435,3.00356687 Z" id="Fill-728" fill="#FFFFFF"></path>
                                <polygon id="Fill-730" fill="#E5E5E5" points="3.70322449 4.67786991 -1.17544398e-05 1.95072 3.29123138 0.0583443079 6.58541313 3.00359052"></polygon>
                            </g>
                            <g id="编组" transform="translate(42.786161, 32.079119)">
                                <mask id="mask-15" fill="white">
                                    <use xlink:href="#path-14"></use>
                                </mask>
                                <g id="Clip-733"></g>
                                <path d="M0.894783219,3.18294043 L0.499481409,2.95171577 C0.240883734,2.80056226 0.0804356313,2.47874012 0.0792601874,2.0212583 C0.0765566662,1.1012089 0.0738531451,0.139408952 0.0737356007,0.0886696284 L0.46903741,0.319894283 C0.469272499,0.370515332 0.471858476,1.33243355 0.474561997,2.25248295 C0.475854985,2.70996478 0.636185544,3.03166864 0.894783219,3.18294043" id="Fill-732" fill="#DD6E58" mask="url(#mask-15)"></path>
                            </g>
                            <g id="编组" transform="translate(39.612462, 27.939548)">
                                <path d="M6.52429004,2.78549422 C6.52452513,2.85634004 6.52828655,4.20110951 6.52970486,4.71808289 C6.53228306,5.63872367 5.88978538,6.75877353 5.09330454,7.22134111 C4.29764651,7.68355387 3.65091724,7.31264824 3.64821372,6.39200746 C3.64562774,5.47195806 3.64292422,4.51003984 3.64268913,4.45941879 L6.52429004,2.78549422 Z" id="Fill-734" fill="#FF7F5B"></path>
                                <polygon id="Fill-736" fill="#F27A5F" points="3.64272439 4.45945427 2.35088795e-05 1.71420852 2.82108905 0.05837979 6.5243253 2.7855297"></polygon>
                            </g>
                            <g id="编组" transform="translate(39.965095, 35.745597)">
                                <mask id="mask-17" fill="white">
                                    <use xlink:href="#path-16"></use>
                                </mask>
                                <g id="Clip-739"></g>
                                <path d="M0.833718904,1.19042258 L0.438417094,0.959197927 C0.17981942,0.808044419 0.0193713167,0.486340552 0.0181958728,0.0290952762 L0.413497682,0.260319931 C0.414908215,0.717565206 0.575238773,1.0391508 0.833718904,1.19042258" id="Fill-738" fill="#E5E5E5" mask="url(#mask-17)"></path>
                            </g>
                            <path d="M43.2551864,32.3990018 C43.2554215,32.4698476 43.2591829,33.8146171 43.2607188,34.3315905 C43.263297,35.2522312 42.620094,36.3726359 41.8243185,36.8348487 C41.0286604,37.2970614 40.3812259,36.9265106 40.3785224,36.0058699 C40.3772294,35.4888965 40.3733504,34.144127 40.3731153,34.0732812 L43.2551864,32.3990018 Z" id="Fill-740" fill="#FFFFFF"></path>
                            <g id="编组" transform="translate(39.965095, 33.734948)">
                                <mask id="mask-19" fill="white">
                                    <use xlink:href="#path-18"></use>
                                </mask>
                                <g id="Clip-743"></g>
                                <path d="M0.413474173,2.27093362 L0.0181723639,2.03970896 C0.0166442867,1.52273558 0.012882866,0.177966106 0.0126477772,0.107120291 L0.408067131,0.338344946 C0.40830222,0.409190761 0.412063641,1.75396023 0.413474173,2.27093362" id="Fill-742" fill="#858585" mask="url(#mask-19)"></path>
                            </g>
                            <polygon id="Fill-744" fill="#E5E5E5" points="40.3731741 34.0733167 36.6738168 31.3096202 39.6124268 29.6537915 43.2552452 32.3990373"></polygon>
                            <g id="编组" transform="translate(37.026485, 37.401426)">
                                <mask id="mask-21" fill="white">
                                    <use xlink:href="#path-20"></use>
                                </mask>
                                <g id="Clip-747"></g>
                                <path d="M0.890880745,1.2088969 L0.495578935,0.977672245 C0.236863716,0.826400463 0.0765331573,0.504696596 0.075240169,0.0472147734 L0.470659523,0.278439428 C0.471952511,0.735921251 0.63228307,1.05762512 0.890880745,1.2088969" id="Fill-746" fill="#DD6E58" mask="url(#mask-21)"></path>
                            </g>
                            <path d="M40.3731741,34.0733167 C40.3734092,34.1441625 40.3771706,35.488932 40.3785889,36.0059053 C40.3811671,36.9265461 39.7380817,38.0469508 38.9421886,38.5091636 C38.1465306,38.9713763 37.4996838,38.6004707 37.4970978,37.6798299 C37.4956872,37.1628565 37.4918083,35.818087 37.4915732,35.7472412 L40.3731741,34.0733167 Z" id="Fill-748" fill="#FF7F5B"></path>
                            <g id="编组" transform="translate(37.026485, 35.509050)">
                                <mask id="mask-23" fill="white">
                                    <use xlink:href="#path-22"></use>
                                </mask>
                                <g id="Clip-751"></g>
                                <path d="M0.470636014,2.17079146 L0.0752166601,1.93956681 C0.0738061273,1.42259342 0.0700447066,0.0778239502 0.0698096178,0.00697813535 L0.465111427,0.23820279 C0.465346516,0.309048605 0.469107937,1.65381808 0.470636014,2.17079146" id="Fill-750" fill="#747270" mask="url(#mask-23)"></path>
                            </g>
                            <polygon id="Fill-752" fill="#F27A5F" points="37.4916085 35.7472767 34.3229641 32.7288192 37.1440297 31.0729905 40.3732094 34.0733521"></polygon>
                            <g id="编组" transform="translate(34.205420, 37.164879)">
                                <mask id="mask-25" fill="white">
                                    <use xlink:href="#path-24"></use>
                                </mask>
                                <g id="Clip-755"></g>
                                <path d="M0.82981643,3.11929747 L0.43451462,2.88819109 C0.175916946,2.73703758 0.0154688427,2.41533371 0.0142933988,1.95808843 C0.0115898776,1.03792076 0.00900390086,0.0761208121 0.00876881207,0.0254997624 L0.404188166,0.256724417 C0.40430571,0.307345467 0.407009231,1.26914541 0.409595208,2.18931309 C0.410888197,2.64655836 0.571218755,2.96814396 0.82981643,3.11929747" id="Fill-754" fill="#E5E5E5" mask="url(#mask-25)"></path>
                            </g>
                            <g id="编组" transform="translate(31.031721, 32.197393)">
                                <path d="M6.45988746,3.5498839 C6.46012255,3.62072971 6.46388397,4.96549919 6.46541913,5.48247257 C6.46788048,6.40311334 5.82479508,7.52351802 5.02901951,7.98573079 C4.23336148,8.44794355 3.58592694,8.07739273 3.58322342,7.15675196 C3.58075499,6.23670256 3.57793392,5.27478434 3.57781638,5.22416329 L6.45988746,3.5498839 Z" id="Fill-756" fill="#FFFFFF"></path>
                                <polygon id="Fill-758" fill="#E5E5E5" points="3.57787515 5.22418694 5.87721988e-05 1.83245834 3.17375751 0.0583561353 6.45994624 3.54990755"></polygon>
                            </g>
                            <g id="编组" transform="translate(31.266810, 38.820708)">
                                <mask id="mask-27" fill="white">
                                    <use xlink:href="#path-26"></use>
                                </mask>
                                <g id="Clip-761"></g>
                                <path d="M0.886402303,3.13777178 L0.490982949,2.9066654 C0.232385274,2.75539362 0.0719371714,2.43380803 0.0707617274,1.97656275 C0.0681757507,1.05639507 0.0654722295,0.0945951297 0.0653546851,0.0439740801 L0.460656495,0.275198735 C0.460774039,0.325819784 0.46347756,1.28761973 0.466181081,2.20766913 C0.46747407,2.66503268 0.627804628,2.98661828 0.886402303,3.13777178" id="Fill-760" fill="#DD6E58" mask="url(#mask-27)"></path>
                            </g>
                            <g id="编组" transform="translate(0.000000, 0.263553)">
                                <path d="M34.6095961,37.1580267 C34.6098312,37.2287542 34.6135926,38.573642 34.615011,39.0906154 C34.6175892,40.0112561 33.9743862,41.1315425 33.1786106,41.5938736 C32.3829526,42.0560863 31.7355181,41.6855355 31.7329321,40.7647765 C31.7303461,39.8448453 31.7275251,38.8829271 31.7274075,38.8323061 L34.6095961,37.1580267 Z" id="Fill-762" fill="#FF7F5B"></path>
                                <polygon id="Fill-764" fill="#F27A5F" points="31.7274545 38.8323416 26.6825665 33.7663336 31.1492536 33.7663336 34.6096432 37.1580622"></polygon>
                                <polygon id="Fill-766" fill="#DD6E58" points="31.7369874 38.8520932 26.6825783 33.7663336 26.6825783 34.121154 31.3321645 38.9072087"></polygon>
                                <polygon id="Fill-768" fill="#8FACFF" points="56.5817825 17.5173551 56.5902457 20.503997 29.9489255 35.9806733 29.9405799 32.9940314"></polygon>
                                <polygon id="Fill-770" fill="#B4C8FF" points="29.9489138 35.9807206 0.12472636 18.5414142 0.116380708 15.554654 29.9405681 32.9940787"></polygon>
                                <polygon id="Fill-772" fill="#6A91FF" points="29.9405328 32.9940905 0.116345445 15.5546658 26.7576656 0.0778712596 56.5817355 17.5174142"></polygon>
                            </g>
                        </g>
                        <rect id="矩形" x="0" y="0" width="72" height="72"></rect>
                    </g>
                </g>
            </g>
        </g>
    </g>
</svg>