<?xml version="1.0" encoding="UTF-8"?>
<svg width="18px" height="18px" viewBox="0 0 18 18" version="1.1" xmlns="http://www.w3.org/2000/svg" xmlns:xlink="http://www.w3.org/1999/xlink">
    <!-- Generator: Sketch 53.2 (72643) - https://sketchapp.com -->
    <title>ic_print</title>
    <desc>Created with Sketch.</desc>
    <g id="配送中心管理" stroke="none" stroke-width="1" fill="none" fill-rule="evenodd">
        <g id="详情页-配送中心-出库流程-拣货单-打印标签1" transform="translate(-1294.000000, -131.000000)" fill-rule="nonzero">
            <g id="分组-3" transform="translate(1294.000000, 130.000000)">
                <g id="ic_print" transform="translate(0.000000, 1.000000)">
                    <g>
                        <g id="分组-2" transform="translate(1.000000, 2.000000)">
                            <path d="M3,2.5 L3,0.5 C3,0.223857625 3.18654802,-1.77635684e-15 3.41666667,-1.77635684e-15 L12.5833333,-1.77635684e-15 C12.813452,-1.77635684e-15 13,0.223857625 13,0.5 L13,2.5" id="路径" stroke="#3B77E3"></path>
                            <rect id="矩形" fill="#3B77E3" x="2" y="6" width="12" height="1" rx="0.5"></rect>
                            <rect id="矩形" fill="#3B77E3" x="4" y="9" width="6" height="1" rx="0.5"></rect>
                            <rect id="矩形" fill="#3B77E3" x="10" y="4" width="4" height="1" rx="0.5"></rect>
                            <rect id="矩形-copy" fill="#3B77E3" x="4" y="11" width="6" height="1" rx="0.5"></rect>
                            <path d="M4,11 C2.83333333,11 1.66666667,11 0.5,11 L0.5,11 C0.223857625,11 0,10.7761424 0,10.5 L0,2.5 C0,2.22385763 0.223857625,2 0.5,2 L0.5,2 L15.5,2 C15.7761424,2 16,2.22385763 16,2.5 L16,10.5 C16,10.7761424 15.7761424,11 15.5,11 C14.3333333,11 13.1666667,11 12,11" id="路径" stroke="#3B77E3"></path>
                            <path d="M12,6.5 L12,13.5 C12,13.7761424 11.7761424,14 11.5,14 L4.5,14 C4.22385763,14 4,13.7761424 4,13.5 L4,6.5" id="路径" stroke="#3B77E3"></path>
                        </g>
                        <rect id="mask" x="0" y="0" width="18" height="18"></rect>
                    </g>
                </g>
            </g>
        </g>
    </g>
</svg>