<?xml version="1.0" encoding="UTF-8"?>
<svg width="24px" height="24px" viewBox="0 0 24 24" version="1.1" xmlns="http://www.w3.org/2000/svg" xmlns:xlink="http://www.w3.org/1999/xlink">
    <!-- Generator: Sketch 52.2 (67145) - http://www.bohemiancoding.com/sketch -->
    <title>ic/time</title>
    <desc>Created with Sketch.</desc>
    <g id="ic/time" stroke="none" stroke-width="1" fill="none" fill-rule="evenodd">
        <g id="分组-2">
            <g id="分组" transform="translate(2.000000, 2.000000)">
                <path d="M9.99994727,1 C5.02995307,1 1,5.02995307 1,9.99994727 C1,14.9699678 5.02995307,19 9.99994727,19 C14.9699415,19 19,14.9699678 19,9.99994727 C19,5.02995307 14.9699415,1 9.99994727,1 Z M10,17 C6.14015625,17 3,13.8598711 3,10 C3,6.14122266 6.14015625,3 10,3 C13.8598438,3 17,6.14122266 17,10 C17,13.8598711 13.8598438,17 10,17 Z" id="shijian-(2)" fill="#CED0DA"></path>
                <path d="M11,9.58578644 L13.5497475,12.1355339 C13.9402718,12.5260582 13.9402718,13.1592232 13.5497475,13.5497475 C13.1592232,13.9402718 12.5260582,13.9402718 12.1355339,13.5497475 L9.30710678,10.7213203 C9.3047264,10.71894 9.30236052,10.7165506 9.30000915,10.7141523 C9.11486756,10.5326593 9,10.279744 9,10 L9,6 C9,5.44771525 9.44771525,5 10,5 C10.5522847,5 11,5.44771525 11,6 L11,9.58578644 Z" id="Combined-Shape" fill="#3B77E3"></path>
                <rect id="矩形" fill-rule="nonzero" x="0" y="0" width="20" height="20"></rect>
            </g>
        </g>
    </g>
</svg>