<?xml version="1.0" encoding="UTF-8"?>
<svg width="120px" height="120px" viewBox="0 0 120 120" version="1.1" xmlns="http://www.w3.org/2000/svg" xmlns:xlink="http://www.w3.org/1999/xlink">
    <!-- Generator: Sketch 52.5 (67469) - http://www.bohemiancoding.com/sketch -->
    <title>img_empoty</title>
    <desc>Created with Sketch.</desc>
    <g id="Page-1" stroke="none" stroke-width="1" fill="none" fill-rule="evenodd">
        <g id="列表页0" transform="translate(-660.000000, -380.000000)">
            <g id="分组" transform="translate(660.000000, 380.000000)">
                <ellipse id="椭圆形" fill-opacity="0.7" fill="#9CBAF1" fill-rule="nonzero" cx="61.5" cy="94" rx="50.5" ry="6"></ellipse>
                <path d="M15.8223313,56.6351235 L31.3181763,37 L87.4585932,37 L105.289011,56.6078296 C105.623807,56.9759986 105.809323,57.4557559 105.809323,57.9533866 L105.809323,90 C105.809323,92.209139 104.018462,94 101.809323,94 L19.3923133,94 C17.1831743,94 15.3923133,92.209139 15.3923133,90 L15.3923133,57.8741377 C15.3923133,57.4245391 15.5438017,56.9880544 15.8223313,56.6351235 Z" id="路径-14" stroke="#3B77E3" stroke-width="2" fill="#FFFFFF" fill-rule="nonzero"></path>
                <path d="M32.5286943,60 L24.0975386,60 C22.9929691,60 22.0975386,59.1045695 22.0975386,58 C22.0975386,57.5541575 22.24651,57.121098 22.5207907,56.7696074 L34.821729,41.0059577 L84.6509176,41.0059577 L98.9411988,56.6511774 C99.686133,57.4667428 99.628875,58.7317776 98.8133097,59.4767117 C98.4447557,59.8133474 97.9636419,60 97.4644871,60 L87,60 C86.4477153,60 86,60.4477153 86,61 L86,72 C86,73.1045695 85.1045695,74 84,74 L35.5286943,74 C34.4241248,74 33.5286943,73.1045695 33.5286943,72 L33.5286943,61 C33.5286943,60.4477153 33.080979,60 32.5286943,60 Z" id="路径-13" stroke="#3B77E3" stroke-width="2" fill-opacity="0.2" fill="#9CBAF1" fill-rule="nonzero"></path>
                <polygon id="矩形" stroke="#3B77E3" stroke-width="2" fill="#FFFFFF" fill-rule="nonzero" transform="translate(70.949747, 55.949747) rotate(-45.000000) translate(-70.949747, -55.949747) " points="68.1853605 53.1853605 74.4497475 52.4497475 73.7538264 58.7538264 67.4497475 59.4497475"></polygon>
                <circle id="椭圆形" fill="#3B77E3" cx="77.5" cy="25.5" r="1.5"></circle>
                <rect id="矩形" stroke="#3B77E3" stroke-width="2" fill-opacity="0.2" fill="#9CBAF1" fill-rule="nonzero" x="46" y="82" width="30" height="5" rx="2.5"></rect>
                <path d="M44.8825713,27 C43.7268606,29.0364216 42.7350204,30.5978426 41.9070508,31.6842629 C41.0790811,32.7706831 39.7767309,34.0330076 38,35.4712364 C40.2554551,36.9473002 41.746931,38.2711585 42.4744276,39.4428112 C43.2019241,40.6144639 44.0046387,42.1335269 44.8825713,44 C45.7462236,41.9012218 46.696809,40.2272642 47.7343275,38.9781275 C48.7718461,37.7289907 50.1937369,36.5696149 52,35.5 C50.3881453,34.4274059 48.9662545,33.1554935 47.7343275,31.6842629 C46.5024006,30.2130322 45.5518152,28.6516113 44.8825713,27 Z" id="路径-15" stroke="#3B77E3" stroke-width="2" fill="#F5F6FA" fill-rule="nonzero"></path>
                <rect id="矩形" fill-rule="nonzero" x="0" y="0" width="120" height="120"></rect>
            </g>
        </g>
    </g>
</svg>