<svg width="625" height="625" xmlns="http://www.w3.org/2000/svg" version="1.1" clip-rule="evenodd">
 <g>
  <title>Layer 1</title>
  <g stroke="null" id="svg_2">
   <g stroke="null" id="svg_3">
    <path stroke="#ffffff" fill="#248232" d="m133.3762,441.6397a254.58482,257.38677 0 0 1 0,-365.4892c100.41957,-100.95281 263.25099,-100.95281 363.67057,0a254.58482,257.38677 0 0 1 0,365.5152l-181.83528,182.74461l-181.83528,-182.7706l-0.00001,0l0,-0.00001z" p-id="3377" id="svg_1"/>
   </g>
  </g>
  <g stroke="#248232" fill="#ffffff" id="svg_73">
   <g stroke="null" id="svg_7">
    <path stroke="#ffffff" fill="#ffffff" d="m241.942,98.34285c6.51878,-1.11722 12.2874,0.57057 17.30496,5.06154c15.45333,15.74047 30.73881,31.6926 45.85816,47.85456c6.02386,4.28758 12.08059,4.28758 18.17021,0c16.7737,-16.61657 33.50155,-33.18161 50.1844,-49.69511c7.0959,-4.44311 14.01789,-4.13665 20.76596,0.92028c36.51176,37.30078 73.2848,74.26567 110.31916,110.89374c2.13025,4.0207 1.40949,7.24168 -2.16312,9.66294c-9.51774,0.30645 -19.03546,0.61383 -28.5532,0.92028c-2.0316,0.10123 -3.32948,1.1752 -3.89361,3.22098c-0.28813,47.24073 -0.57712,94.48239 -0.86525,141.72312c-1.13261,7.95122 -5.31436,13.01276 -12.5461,15.18462c-26.8227,0.61383 -53.6454,0.61383 -80.46809,0c-1.34027,-1.11722 -2.34915,-2.49764 -3.02837,-4.14126c-0.57712,-12.27009 -0.57712,-24.54111 0,-36.8112c0.72076,-3.22098 2.59574,-5.21523 5.62411,-5.98182c10.09485,-0.30645 20.18884,-0.61383 30.28369,-0.92028c5.39915,-1.75589 8.71565,-5.59071 9.95036,-11.5035c0.84275,-33.47979 0.55462,-66.91723 -0.86525,-100.31051c-1.79539,-3.75382 -4.24664,-6.9748 -7.35461,-9.66294c-10.28002,-9.25249 -20.66299,-18.3016 -31.14894,-27.14826c-9.91056,8.84942 -19.71727,17.89853 -29.41844,27.14826c-2.485,2.33475 -4.64812,4.94191 -6.48936,7.82237c-1.13347,27.24489 -1.7106,54.54684 -1.7305,81.90491c-0.23621,1.68319 -0.95783,3.06361 -2.16312,4.14126c-16.07285,1.50926 -32.22445,1.81663 -48.4539,0.92028c-1.23817,-0.42793 -2.24705,-1.19544 -3.02837,-2.3007c-1.12655,-27.56422 -1.70367,-55.17262 -1.7305,-82.8252c-1.5038,-3.44276 -3.66692,-6.3573 -6.48936,-8.74266c-10.51018,-9.18348 -20.89315,-18.53995 -31.14894,-28.06854c-10.94366,9.95191 -21.75927,20.07499 -32.44681,30.36924c-0.86525,1.84056 -1.7305,3.68112 -2.59574,5.52168c-0.0199,27.35809 -0.59702,54.66002 -1.7305,81.90491c-1.14127,1.8286 -2.72726,2.90257 -4.75886,3.22098c-13.84397,0.61383 -27.68795,0.61383 -41.53192,0c-3.02837,-0.76659 -4.90337,-2.76084 -5.62411,-5.98182c-0.28813,-26.07429 -0.57712,-52.1495 -0.86525,-78.2238c-0.64894,-0.5761 -1.37055,-1.03623 -2.16312,-1.38042c-9.51774,-0.30645 -19.03546,-0.61383 -28.5532,-0.92028c-1.68195,-1.98136 -2.11458,-4.28207 -1.29787,-6.9021c34.41958,-35.994 68.88502,-72.03859 103.39718,-108.1329c3.44023,-3.52651 7.19022,-6.44104 11.24823,-8.74266l-0.00004,0.00002z" id="svg_8"/>
   </g>
   <g stroke="null" id="svg_13">
    <path stroke="#ffffff" fill="#ffffff" d="m160.60866,336.69537c5.13438,-0.56229 10.03688,0.2043 14.70922,2.3007c3.90227,4.91613 7.94039,9.6703 12.11348,14.26434c4.46122,-4.90049 8.78746,-9.96202 12.97873,-15.18462c3.98014,-1.62522 8.01826,-1.7789 12.11348,-0.46014c0.59875,0.48315 1.03137,1.09698 1.29787,1.84056c0.57712,15.03093 0.57712,30.06279 0,45.09372c-2.38549,1.40526 -4.98124,2.01817 -7.78724,1.84056c-1.875,-0.15368 -3.74912,-0.30645 -5.62411,-0.46014c-0.43262,-0.46014 -0.86525,-0.92028 -1.29787,-1.38042c-0.14537,-8.29908 -0.57799,-16.5816 -1.29787,-24.84756c-2.70217,3.33602 -5.58604,6.55699 -8.65249,9.66294c-1.44237,0.61383 -2.88388,0.61383 -4.32624,0c-3.06643,-3.10595 -5.95031,-6.32692 -8.65249,-9.66294c-0.57712,8.58897 -1.15338,17.17887 -1.7305,25.76784c-4.66975,1.32797 -9.28412,1.1752 -13.84397,-0.46014c-1.14818,-16.10489 -1.14818,-32.2098 0,-48.31469l0,-0.00001z" id="svg_14"/>
   </g>
   <g stroke="null" id="svg_15">
    <path stroke="#ffffff" fill="#ffffff" d="m243.6725,336.69537c4.33576,-0.15276 8.66201,0.00092 12.97873,0.46014c3.71192,5.5953 7.31741,11.27067 10.81561,17.02518c3.60549,-5.67536 7.21011,-11.34981 10.81561,-17.02518c4.54342,-0.7399 9.01416,-0.58622 13.41135,0.46014c0.57712,0.92028 0.57712,1.84056 0,2.76084c-5.19149,8.58897 -10.38298,17.17887 -15.57447,25.76784c-0.16007,6.66927 -0.59269,13.26399 -1.29787,19.78602c-5.11881,0.74267 -10.16667,0.5899 -15.14185,-0.46014c-0.08912,-7.12665 -0.66538,-14.18243 -1.7305,-21.16644c-5.16034,-8.37363 -10.20821,-16.80891 -15.14185,-25.3077c0.21026,-0.83009 0.49924,-1.59669 0.86525,-2.3007l-0.00001,-0.00001z" id="svg_16"/>
   </g>
   <g stroke="null" id="svg_17">
    <path stroke="#ffffff" fill="#ffffff" d="m321.54485,336.69537c5.77553,-0.15276 11.54415,0 17.30496,0.46014c0.43262,0.46014 0.86525,0.92028 1.29787,1.38042c0.57712,13.19037 0.57712,26.38166 0,39.57204c-2.24013,6.56896 -6.71087,9.3298 -13.41135,8.28252c-7.38923,0.82549 -9.84047,-2.54918 -7.35461,-10.12308c1.7305,-0.61383 3.46099,-1.22674 5.19149,-1.84056c0.57712,-9.50926 0.57712,-19.01943 0,-28.52868c-0.86525,-0.61383 -1.7305,-1.22674 -2.59574,-1.84056c-0.43003,-2.43506 -0.57453,-4.88945 -0.43262,-7.36224l0,0.00001z" id="svg_18"/>
   </g>
   <g stroke="null" id="svg_19">
    <path stroke="#ffffff" fill="#ffffff" d="m231.55902,373.50656c5.01411,-1.25435 8.18612,0.7399 9.51774,5.98182c-2.55422,7.28402 -6.44783,8.35706 -11.68086,3.22098c-0.98552,-3.60841 -0.2639,-6.67571 2.16312,-9.20279l0,-0.00001z" id="svg_20"/>
   </g>
   <g stroke="null" id="svg_21">
    <path stroke="#ffffff" fill="#ffffff" d="m295.5874,373.50656c7.06735,-0.28069 9.51946,3.09398 7.35461,10.12308c-3.71538,3.77407 -7.17637,3.46762 -10.38298,-0.92028c-1.22779,-4.0658 -0.21804,-7.13309 3.02837,-9.20279l0.00001,-0.00001z" id="svg_22"/>
   </g>
  </g>
 </g>

</svg>