<?xml version="1.0" standalone="no"?><!DOCTYPE svg PUBLIC "-//W3C//DTD SVG 1.1//EN" "http://www.w3.org/Graphics/SVG/1.1/DTD/svg11.dtd"><svg t="1665391132336" class="icon" viewBox="0 0 1024 1024" version="1.1" xmlns="http://www.w3.org/2000/svg" p-id="3730" xmlns:xlink="http://www.w3.org/1999/xlink" width="200" height="200"><path d="M386.845956 915.918377a136.524156 39.819545 0 1 0 273.048312 0 136.524156 39.819545 0 1 0-273.048312 0Z" fill="#CACACA" opacity=".8" p-id="3731"></path><path d="M724.834258 608.101913a93.905865 93.905865 0 0 1-7.963909 6.223226c-1.240094 0.932915-2.51432 1.820322-3.765791 2.730483C532.06215 745.035641 513.642766 894.438576 512.072738 934.121597L511.993099 932.983896c-10.865047-161.348798-140.983945-271.91061-187.959632-306.747024a341.31039 341.31039 0 1 1 400.800791-18.134959zM511.993099 944.360909s-0.182032-3.674775 0.079639-10.239312C525.201811 1129.339763 511.993099 944.360909 511.993099 944.360909z" fill="#498BFC" p-id="3732"></path><path d="M511.993099 0.068831a341.242128 341.242128 0 0 1 212.841159 608.033082 93.905865 93.905865 0 0 1-7.963909 6.223226c-1.240094 0.932915-2.51432 1.820322-3.765791 2.730483a634.404998 634.404998 0 0 0-33.994515 25.803066L274.031495 96.773441A340.104426 340.104426 0 0 1 511.993099 0.068831z" fill="#FFFFFF" opacity=".2" p-id="3733"></path></svg>