<?xml version="1.0" standalone="no"?><!DOCTYPE svg PUBLIC "-//W3C//DTD SVG 1.1//EN" "http://www.w3.org/Graphics/SVG/1.1/DTD/svg11.dtd"><svg t="1666658890277" class="icon" viewBox="0 0 1024 1024" version="1.1" xmlns="http://www.w3.org/2000/svg" p-id="11637" xmlns:xlink="http://www.w3.org/1999/xlink" width="200" height="200"><path d="M506.88 771.072v-113.834667a17.066667 17.066667 0 0 0-17.066667-17.066666H280.234667a17.066667 17.066667 0 0 0-17.066667 17.066666v113.834667a17.066667 17.066667 0 0 0-13.824 17.066667 17.066667 17.066667 0 0 0 17.066667 17.066666h237.397333a17.066667 17.066667 0 0 0 17.066667-17.066666 17.066667 17.066667 0 0 0-13.994667-17.066667z m-138.922667 0h-70.656v-96.768h70.656z m104.789334 0h-70.656v-96.768h70.656zM657.408 787.456a20.992 20.992 0 1 0-20.992-20.992 20.992 20.992 0 0 0 20.992 20.992z" fill="#242423" p-id="11638"></path><path d="M921.6 882.346667h-47.445333V598.357333A81.408 81.408 0 0 0 921.6 524.288a18.602667 18.602667 0 0 0 0-4.437333l-55.978667-203.093334a17.066667 17.066667 0 0 0-17.066666-12.458666h-138.752v-46.933334h40.106666a17.066667 17.066667 0 0 0 17.066667-17.066666V124.586667a17.066667 17.066667 0 0 0-17.066667-17.066667H274.090667a17.066667 17.066667 0 0 0-17.066667 17.066667v115.712a17.066667 17.066667 0 0 0 17.066667 17.066666h40.106666v46.933334h-138.069333a17.066667 17.066667 0 0 0-17.066667 12.458666L103.765333 516.778667a18.602667 18.602667 0 0 0 0 4.437333 87.04 87.04 0 0 0 26.794667 62.634667 79.018667 79.018667 0 0 0 19.285333 13.482666v285.013334H102.4a17.066667 17.066667 0 0 0 0 34.133333h819.2a17.066667 17.066667 0 0 0 0-34.133333zM649.728 300.885333v-40.106666h25.941333v40.106666z m-358.4-159.232h441.514667v81.578667H291.157333z m83.114667 119.466667v40.106667h-26.112v-40.448z m34.133333-3.413333h207.018667v46.933333H408.405333z m318.122667 624.64H616.106667V674.304h110.592z m113.322666 0h-79.189333V657.237333a17.066667 17.066667 0 0 0-17.066667-17.066666H599.04a17.066667 17.066667 0 0 0-17.066667 17.066666V882.346667H183.978667V606.378667h4.778666a81.066667 81.066667 0 0 0 54.784-24.064 64.853333 64.853333 0 0 0 7.168-8.192 82.432 82.432 0 0 0 65.365334 32.256 80.896 80.896 0 0 0 58.197333-24.064 104.789333 104.789333 0 0 0 7.168-8.021334 82.432 82.432 0 0 0 65.194667 32.085334 81.066667 81.066667 0 0 0 58.197333-24.064 82.090667 82.090667 0 0 0 7.168-8.192 82.432 82.432 0 0 0 65.365333 32.256 81.066667 81.066667 0 0 0 58.026667-24.064 82.090667 82.090667 0 0 0 7.168-8.192 82.432 82.432 0 0 0 65.365333 32.256 81.066667 81.066667 0 0 0 58.197334-24.064 104.789333 104.789333 0 0 0 7.168-8.021334 82.090667 82.090667 0 0 0 65.194666 32.085334h1.536z m-1.536-309.76a48.298667 48.298667 0 0 1-48.128-48.298667 17.066667 17.066667 0 0 0-34.133333 0 48.128 48.128 0 0 1-14.336 34.133333 47.104 47.104 0 0 1-34.133333 13.994667 48.298667 48.298667 0 0 1-48.298667-48.298667 17.066667 17.066667 0 0 0-34.133333 0 48.298667 48.298667 0 0 1-48.128 48.298667A48.298667 48.298667 0 0 1 529.066667 524.288a17.066667 17.066667 0 0 0-34.133334 0 48.298667 48.298667 0 1 1-96.426666 0 17.066667 17.066667 0 0 0-34.133334 0 48.298667 48.298667 0 1 1-96.597333 0 17.066667 17.066667 0 0 0-34.133333 0A48.128 48.128 0 0 1 187.733333 572.586667a47.104 47.104 0 0 1-34.133333-13.312 52.565333 52.565333 0 0 1-16.213333-35.84l51.2-185.002667h78.506666l-20.309333 110.762667a17.066667 17.066667 0 0 0 13.653333 19.797333h3.072a17.066667 17.066667 0 0 0 17.066667-13.994667l21.504-116.906666h79.189333l-10.410666 112.128a17.066667 17.066667 0 0 0 15.530666 18.602666h1.536a17.066667 17.066667 0 0 0 17.066667-15.530666l10.581333-115.370667H494.933333v114.346667a17.066667 17.066667 0 0 0 34.133334 0v-113.834667h79.189333l10.581333 115.370667a17.066667 17.066667 0 0 0 17.066667 15.530666h1.536a17.066667 17.066667 0 0 0 15.530667-18.602666l-10.410667-112.128h79.189333l21.504 116.906666a17.066667 17.066667 0 0 0 17.066667 13.994667h3.072a17.066667 17.066667 0 0 0 13.653333-19.797333l-20.309333-110.762667h78.506667l51.2 187.733333a47.957333 47.957333 0 0 1-14.165334 32.085334 47.104 47.104 0 0 1-33.792 13.824z" fill="#242423" p-id="11639"></path></svg>