<?xml version="1.0" standalone="no"?><!DOCTYPE svg PUBLIC "-//W3C//DTD SVG 1.1//EN" "http://www.w3.org/Graphics/SVG/1.1/DTD/svg11.dtd"><svg t="1665374262467" class="icon" viewBox="0 0 1024 1024" version="1.1" xmlns="http://www.w3.org/2000/svg" p-id="3382" data-spm-anchor-id="a313x.7781069.0.i4" xmlns:xlink="http://www.w3.org/1999/xlink" width="200" height="200"><path d="M441.191489 991.319149a70.808511 32.680851 0 1 0 141.617022 0 70.808511 32.680851 0 1 0-141.617022 0Z" fill="#999999" p-id="3383"></path><path d="M690.241362 640.827915c-2.28766 2.026213-5.882553 5.011064-10.762894 8.998128a479.188426 479.188426 0 0 0-161.051234 250.182808c-2.614468 10.022128-4.793191 15.054979-6.427234 15.054979-1.677617 0-3.899915-5.228936-6.645106-15.643234a479.144851 479.144851 0 0 0-171.683405-258.483745s-35.491404-34.728851-50.241361-54.380936a302.188936 302.188936 0 0 1-72.486128-196.891234C210.944 222.578383 345.71983 87.148936 512 87.148936s301.056 135.429447 301.056 302.515745a302.188936 302.188936 0 0 1-73.270468 197.806298c-14.597447 19.259915-31.155745 37.147234-49.54417 53.356936z" fill="#999999" p-id="3384"></path><path d="M718.390468 662.876596c-2.658043 2.353021-6.819404 5.817191-12.462298 10.414298A554.855489 554.855489 0 0 0 519.451234 962.995745c-3.050213 11.612596-5.533957 17.429787-7.451234 17.429787-1.960851 0-4.509957-6.035064-7.690894-18.105192a554.790128 554.790128 0 0 0-193.383489-295.06451l-5.425021-4.248511s-41.068936-40.219234-58.171915-62.965106A349.902979 349.902979 0 0 1 163.404255 372.060596C163.404255 178.589957 319.466213 21.787234 512 21.787234s348.595745 156.824511 348.595745 350.273362a349.902979 349.902979 0 0 1-84.83949 229.049191 420.907574 420.907574 0 0 1-57.365787 61.766809z" fill="#FFFFFF" p-id="3385"></path><path d="M512 370.382979m-305.021277 0a305.021277 305.021277 0 1 0 610.042554 0 305.021277 305.021277 0 1 0-610.042554 0Z" fill="#1296db" p-id="3386" data-spm-anchor-id="a313x.7781069.0.i5" class=""></path><path d="M397.617021 512.217872l1.525107-24.096681 10.370723 12.505873c4.466383 6.318298 10.893617 9.45566 19.21634 9.455659H649.259574l3.050213-37.822638h-189.723234v-39.042723h32.637277v-37.822639h-32.637277v-37.517617h37.212596V320.054468h-45.143149v-38.432681h38.12766V243.799149h-38.12766V217.87234h-47.278298v25.926809H366.504851v37.822638h40.872851v38.432681H359.489362v37.822638h59.174127v88.456171l-15.861106-18.606298 2.745191-46.973277h-38.127659l-3.965277 64.969532L359.489362 512.217872h38.127659z m225.410724-51.853617c2.83234 0 5.75183-0.457532 8.693106-1.372595 2.941277-0.915064 5.642894-2.244085 8.083064-3.965277a21.046468 21.046468 0 0 0 5.947915-6.405447 16.558298 16.558298 0 0 0 2.287659-8.693106v-57.954043H600.45617v40.56783h-43.618042V353.606809h64.359489c2.83234 0 5.75183-0.457532 8.693106-1.372596 2.941277-0.915064 5.642894-2.244085 8.083064-3.965277a21.046468 21.046468 0 0 0 5.947915-6.405447 16.558298 16.558298 0 0 0 2.28766-8.693106V230.683234h-138.47966v37.822638h91.201362v47.278298h-64.35949c-2.83234 0-5.75183 0.457532-8.693106 1.372596a28.497702 28.497702 0 0 0-8.083064 3.965277 21.046468 21.046468 0 0 0-5.947915 6.405446 16.558298 16.558298 0 0 0-2.287659 8.693107v102.487149c0 6.710468 2.592681 11.982979 7.778042 15.861106 5.185362 3.85634 10.937191 5.795404 17.233702 5.795404l88.456171-0.305021v0.305021z" fill="#FFFFFF" p-id="3387" data-spm-anchor-id="a313x.7781069.0.i11" class="selected"></path></svg>