<svg xmlns="http://www.w3.org/2000/svg" xmlns:xlink="http://www.w3.org/1999/xlink" width="200" height="200" viewBox="0 0 200 200" fill="none"><defs><rect id="path_0" x="0" y="0" width="200" height="200" /><filter id="filter_54" x="12.667473473097584" y="16.999999999999996" width="174.66505305380483" height="166" filterUnits="userSpaceOnUse" color-interpolation-filters="sRGB"><feFlood flood-opacity="0" result="BackgroundImageFix"/>
          <feColorMatrix in="SourceAlpha" type="matrix" values="0 0 0 0 0 0 0 0 0 0 0 0 0 0 0 0 0 0 127 0"/>
          <feOffset dx="0" dy="10"/>
          <feGaussianBlur stdDeviation="2"/>
          <feColorMatrix type="matrix" values="0 0 0 0 0 0 0 0 0 0 0 0 0 0 0 0 0 0 0.25 0"/>
          <feBlend mode="normal" in2="BackgroundImageFix" result="effect1_Shadow"/>
          <feBlend mode="normal" in="SourceGraphic" in2="effect1_Shadow" result="shape"/></filter></defs><g opacity="1" transform="translate(0 0)  rotate(0 100 100)"><mask id="bg-mask-0" fill="white"><use xlink:href="#path_0"></use></mask><g mask="url(#bg-mask-0)" ><path id="路径 1" fill-rule="evenodd" style="fill:#EDF4FF" transform="translate(32.53333339843749 102.4)  rotate(0 67.43333330078126 36.633333300781246)" opacity="1" d="M71.2 9.04C68.81 6.65 67.47 3.43 67.47 0.06C67.46 3.43 66.12 6.65 63.73 9.03C61.35 11.44 58.09 12.79 54.7 12.77C51.32 12.77 48.07 11.42 45.68 9.03C43.31 6.64 41.97 3.42 41.97 0.06C41.96 3.43 40.62 6.65 38.23 9.03C35.85 11.44 32.59 12.79 29.2 12.77C22.15 12.77 16.44 7.06 16.43 0.01C16.43 6.88 11 12.52 4.13 12.77C2.73 12.81 1.33 12.6 0 12.13L0 73.27L134.87 73.27L134.87 12.2C133.69 12.56 132.47 12.75 131.23 12.77C127.85 12.77 124.61 11.42 122.22 9.03C119.84 6.65 118.51 3.43 118.5 0.07C118.49 3.44 117.14 6.67 114.73 9.03C112.36 11.45 109.12 12.79 105.73 12.77C102.34 12.78 99.09 11.43 96.7 9.04C94.31 6.65 92.97 3.43 92.97 0.06C92.96 3.43 91.62 6.65 89.23 9.03C86.86 11.44 83.61 12.79 80.23 12.77C76.84 12.78 73.59 11.43 71.2 9.04Z" /><path id="路径 2" fill-rule="evenodd" style="fill:#D8E3F0" transform="translate(32.599999999997586 159.23333339843748)  rotate(0 67.4000000000012 8.216666601562505)" opacity="1" d="M0,0.13L0,16.43L134.8,16.43L134.8,0C112.41,2.32 89.91,3.48 67.4,3.47C44.89,3.52 22.39,2.41 0,0.13Z " /><g opacity="1" transform="translate(64.69999999999999 46.93333339843749)  rotate(0 35.31666669921874 7.916666601562502)"><path id="路径 3" fill-rule="evenodd" style="fill:#FCFEFF" transform="translate(0 0)  rotate(0 5.866666699218747 7.916666601562497)" opacity="1" d="M0,15.83L11.73,15.83L11.73,0L0,0L0,15.83Z " /><path id="路径 4" fill-rule="evenodd" style="fill:#FCFEFF" transform="translate(58.9 5.551115123125783e-15)  rotate(0 5.866666699218747 7.9166666015625)" opacity="1" d="M11.73,0L0,0L0,15.83L11.73,15.83L11.73,0Z " /></g><path id="路径 5" fill-rule="evenodd" style="fill:#96DDFF" transform="translate(54.7333333984375 128.3666666015625)  rotate(0 20.4666666015625 12.716666699218749)" opacity="1" d="M0,25.43L40.93,25.43L40.93,0L0,0L0,25.43Z " /><g opacity="1" transform="translate(60 128.3666666015625)  rotate(0 18.883333300781253 12.716666699218749)"><path id="路径 6" fill-rule="evenodd" style="fill:#69BAF9" transform="translate(0 0)  rotate(0 8.61666669921875 12.716666699218749)" opacity="1" d="M8.03,0L0,25.43L9.2,25.43L17.23,0L8.03,0Z " /><path id="路径 7" fill-rule="evenodd" style="fill:#69BAF9" transform="translate(20.53333339843749 0)  rotate(0 8.616666601562507 12.716666699218749)" opacity="1" d="M8.03,0L0,25.43L15.87,25.43L17.23,0L8.03,0Z " /></g><path id="路径 8" fill-rule="evenodd" style="fill:#96DDFF" transform="translate(117 128.3666666015625)  rotate(0 14.133333300781247 23.64999999999999)" opacity="1" d="M0,47.3L28.27,47.3L28.27,0L0,0L0,47.3Z " /><path id="路径 9" fill-rule="evenodd" style="fill:#69BAF9" transform="translate(117 164.4333333984375)  rotate(0 14.133333300781247 5.683333300781246)" opacity="1" d="M0,11.37L28.27,11.37L28.27,0C18.97,0.63 9.67,1.13 0,1.37L0,11.37Z " /><path id="路径 10" fill-rule="evenodd" style="fill:#FFC670" transform="translate(53.53333339843749 24.333333398437503)  rotate(0 46.48333330078124 11.300000000000002)" opacity="1" d="M0,22.6L92.97,22.6L92.97,0L0,0L0,22.6Z " /><path id="路径 11" fill-rule="evenodd" style="fill:#FFA742" transform="translate(96.96666660156251 24.333333398437503)  rotate(0 24.749999999999993 11.300000000000002)" opacity="1" d="M6.07,0L0,22.6L49.5,22.6L49.5,0L6.07,0Z " /><path id="路径 12" fill-rule="evenodd" style="fill:#D8E3F0" transform="translate(151.14993586879817 102.4)  rotate(0 12.76673073276432 6.709399289290974)" opacity="1" d="M0.02,0C-0.22,4.71 2.15,9.17 6.2,11.6C10.24,14.03 15.29,14.03 19.34,11.6C23.38,9.17 25.76,4.71 25.52,0L0.02,0Z " /><path id="路径 13" fill-rule="evenodd" style="fill:#FCFEFF" transform="translate(143.7333333984375 62.76666660156249)  rotate(0 16.400000000000002 19.81666669921875)" opacity="1" d="M21.87,0L0,0L7.3,39.63L32.8,39.63L21.87,0Z " /><path id="路径 14" fill-rule="evenodd" style="fill:#F0504D" transform="translate(125.49999999999999 102.4)  rotate(0 12.766666699218753 6.3833333496093765)" opacity="1" d="M0,0C0,7.05 5.72,12.77 12.77,12.77C19.81,12.77 25.53,7.05 25.53,0L0,0Z " /><path id="路径 15" fill-rule="evenodd" style="fill:#F6716F" transform="translate(121.86666660156251 62.76666660156249)  rotate(0 14.583333398437503 19.81666669921875)" opacity="1" d="M21.87,0L0,0L3.63,39.63L29.17,39.63L21.87,0Z " /><path  id="路径 15" style="stroke:#000000; stroke-width:1; stroke-opacity:1; stroke-dasharray:0 0" transform="translate(121.86666660156251 62.76666660156249)  rotate(0 14.583333398437503 19.81666669921875)" d="M21.87,0L0,0L3.63,39.63L29.17,39.63L21.87,0Z " /><path id="路径 16" fill-rule="evenodd" style="fill:#D8E3F0" transform="translate(99.98326926723567 102.4)  rotate(0 12.766730732764353 6.709399289291007)" opacity="1" d="M0.02,0C-0.22,4.71 2.15,9.17 6.2,11.6C10.24,14.03 15.29,14.03 19.34,11.6C23.38,9.17 25.76,4.71 25.52,0L0.02,0Z " /><path id="路径 17" fill-rule="evenodd" style="fill:#FCFEFF" transform="translate(100 62.76666660156249)  rotate(0 12.749999999999995 19.81666669921875)" opacity="1" d="M21.87,0L0,0L0,39.63L25.5,39.63L21.87,0Z " /><path id="路径 18" fill-rule="evenodd" style="fill:#F0504D" transform="translate(74.4832692672357 102.4)  rotate(0 12.766730732764337 6.709399289291007)" opacity="1" d="M0.02,0C-0.22,4.71 2.15,9.17 6.2,11.6C10.24,14.03 15.29,14.03 19.34,11.6C23.38,9.17 25.76,4.71 25.52,0L0.02,0Z " /><path id="路径 19" fill-rule="evenodd" style="fill:#F6716F" transform="translate(74.50000000000001 62.76666660156249)  rotate(0 12.75 19.81666669921875)" opacity="1" d="M3.63,0L0,39.63L25.5,39.63L25.5,0L3.63,0Z " /><path id="路径 20" fill-rule="evenodd" style="fill:#D8E3F0" transform="translate(48.966666601562494 102.4)  rotate(0 12.766666699218753 6.3833333496093765)" opacity="1" d="M0,0C0,7.05 5.72,12.77 12.77,12.77C19.81,12.77 25.53,7.05 25.53,0L0,0Z " /><path id="路径 21" fill-rule="evenodd" style="fill:#FCFEFF" transform="translate(48.966666601562494 62.76666660156249)  rotate(0 14.583333398437501 19.81666669921875)" opacity="1" d="M7.3,0L0,39.63L25.53,39.63L29.17,0L7.3,0Z " /><path id="路径 22" fill-rule="evenodd" style="fill:#F0504D" transform="translate(23.3333333984375 102.4)  rotate(0 12.816668055513498 6.383336075396762)" opacity="1" d="M0,0C0.3,7.14 6.19,12.77 13.33,12.77C20.2,12.52 25.64,6.87 25.63,0L0,0Z " /><path id="路径 23" fill-rule="evenodd" style="fill:#F6716F" transform="translate(23.487593497289804 62.76666660156249)  rotate(0 16.389536552136345 19.81666669921875)" opacity="1" d="M10.95,0L0.01,39.03C0,39.23 0,39.43 0.01,39.63L25.48,39.63L32.78,0L10.95,0Z " /><path id="分组 3" fill-rule="evenodd" style="fill:#3D3D63" transform="translate(48.69944172782399 125.03333339843748)  rotate(0 41.900339057537295 16.116666601562525)" opacity="1" d="M50.3 25.57L50.3 3.33C50.3 1.49 48.81 0 46.97 0L6.03 0C4.19 0 2.7 1.49 2.7 3.33L2.7 25.57C1.11 25.87 -0.03 27.28 0 28.9C0 30.74 1.49 32.23 3.33 32.23L49.7 32.23C51.54 32.23 53.03 30.74 53.03 28.9C53.06 27.27 51.9 25.86 50.3 25.57Z M23.1672 6.66667L9.36722 6.66667L9.36722 25.5667L23.1672 25.5667L23.1672 6.66667Z M43.6339 6.66667L29.8339 6.66667L29.8339 25.5667L43.6339 25.5667L43.6339 6.66667Z M83.4906 26.2365C84.1206 24.7065 83.7706 22.9365 82.6006 21.7665C81.4306 20.5965 79.6606 20.2465 78.1306 20.8765C76.6006 21.5165 75.6006 23.0065 75.6006 24.6665C75.6006 26.9265 77.4406 28.7665 79.7006 28.7665C81.3606 28.7665 82.8506 27.7665 83.4906 26.2365Z " /><g id="分组 4" filter="url(#filter_54)"><path id="分组 4" fill-rule="evenodd" style="fill:#3D3D63" transform="translate(16.667473473097584 20.999999999999996)  rotate(0 83.33252652690241 79)" opacity="1" d="M115.3,29.93L110.23,29.93L110.23,37.76L115.3,37.76L115.3,29.93Z M121.97,29.27L129.8,29.27C131.64,29.27 133.13,27.77 133.13,25.93L133.13,3.33C133.13,1.49 131.64,0 129.8,0L36.87,0C35.02,0 33.53,1.49 33.53,3.33L33.53,25.93C33.53,27.77 35.02,29.27 36.87,29.27L44.7,29.27L44.7,38.43L17.73,38.43C16.19,38.38 14.81,39.38 14.4,40.87L3.6,79.93C3.56,80.22 3.56,80.51 3.6,80.8C3.61,85.42 5.5,89.84 8.83,93.03C9.95,94.09 11.22,94.98 12.6,95.67L12.6,151.33L3.33,151.33C1.49,151.33 0,152.83 0,154.67C0,156.51 1.49,158 3.33,158L163.33,158C165.17,158 166.67,156.51 166.67,154.67C166.67,152.83 165.17,151.33 163.33,151.33L154.07,151.33L154.07,95.87C159.72,93.27 163.34,87.62 163.33,81.4C163.37,81.11 163.37,80.82 163.33,80.53L152.4,40.87C151.98,39.38 150.61,38.38 149.07,38.43L121.97,38.43L121.97,29.27Z M108.8,78.03C110.64,78.03 112.14,79.53 112.14,81.37C112.14,86.58 116.36,90.8 121.57,90.8C124.07,90.83 126.48,89.85 128.24,88.07C130.02,86.31 131.03,83.91 131.04,81.4C131.04,79.56 132.53,78.07 134.37,78.07C136.21,78.07 137.7,79.56 137.7,81.4C137.7,86.6 141.91,90.81 147.1,90.83C149.58,90.86 151.96,89.88 153.7,88.13C155.38,86.47 156.37,84.23 156.47,81.87L146.47,45.2L131.14,45.2L135.1,66.83C135.43,68.64 134.24,70.36 132.44,70.7L131.84,70.7C130.21,70.73 128.8,69.57 128.5,67.97L124.3,45.13L108.84,45.13L110.87,67.03C110.95,67.92 110.68,68.8 110.11,69.48C109.54,70.16 108.72,70.59 107.84,70.67L107.54,70.67C105.81,70.67 104.36,69.36 104.2,67.63L102.14,45.1L86.67,45.1L86.67,67.33C86.67,69.17 85.18,70.67 83.34,70.67C81.5,70.67 80,69.17 80,67.33L80,45L64.5,45L62.44,67.53C62.28,69.26 60.83,70.57 59.1,70.57L58.8,70.57C57.92,70.49 57.1,70.06 56.53,69.38C55.96,68.7 55.69,67.82 55.77,66.93L57.8,45.03L42.34,45.03L38.14,67.87C37.84,69.47 36.43,70.63 34.8,70.6L34.2,70.6C32.4,70.26 31.21,68.54 31.54,66.73L35.5,45.1L20.17,45.1L10.17,81.23C10.28,83.89 11.41,86.4 13.34,88.23C15.12,89.96 17.52,90.9 20,90.83C25.04,90.6 28.99,86.44 28.97,81.4C28.97,79.56 30.46,78.07 32.3,78.07C34.14,78.07 35.64,79.56 35.64,81.4C35.64,84.77 37.43,87.89 40.35,89.57C43.27,91.26 46.87,91.26 49.79,89.57C52.71,87.89 54.5,84.77 54.5,81.4C54.5,79.56 56,78.07 57.84,78.07C59.68,78.07 61.17,79.56 61.17,81.4C60.96,84.9 62.71,88.22 65.71,90.03C68.71,91.85 72.46,91.85 75.46,90.03C78.46,88.22 80.21,84.9 80,81.4C80,79.56 81.5,78.07 83.34,78.07C85.18,78.07 86.67,79.56 86.67,81.4C86.69,86.58 90.89,90.78 96.07,90.8C101.27,90.78 105.47,86.56 105.47,81.37C105.47,79.53 106.96,78.03 108.8,78.03Z M40.2,22.6L126.47,22.6L126.47,6.67L40.23,6.67L40.2,22.6Z M147.4,151.33L147.4,97.43L147.1,97.43C142.12,97.44 137.41,95.12 134.37,91.16C133.93,91.71 133.46,92.23 132.97,92.73C129.97,95.76 125.87,97.46 121.6,97.43C116.6,97.43 111.88,95.1 108.84,91.13C108.41,91.69 107.94,92.23 107.44,92.73C104.44,95.76 100.36,97.45 96.1,97.43C91.1,97.43 86.38,95.1 83.34,91.13C82.91,91.69 82.44,92.23 81.94,92.73C78.94,95.76 74.84,97.46 70.57,97.43C65.58,97.43 60.88,95.11 57.84,91.16C57.4,91.71 56.93,92.23 56.44,92.73C53.44,95.77 49.34,97.46 45.07,97.43C40.07,97.43 35.35,95.1 32.3,91.13C31.88,91.7 31.41,92.24 30.9,92.73C28.07,95.6 24.24,97.29 20.2,97.43L19.27,97.43L19.27,151.33L97,151.33L97,107.36C97,105.52 98.5,104.03 100.34,104.03L128.6,104.03C130.44,104.03 131.94,105.52 131.94,107.36L131.94,151.33L147.4,151.33Z M51.37,37.83L56.47,37.83L56.47,30L51.37,29.93L51.37,37.83Z M63.1,38.5L103.57,38.5L103.57,29.33L63.13,29.33L63.1,38.5Z M103.67,151.33L125.27,151.33L125.27,110.7L103.67,110.7L103.67,151.33Z " /><path  id="分组 4" style="stroke:#2A82E4; stroke-width:3; stroke-opacity:1; stroke-dasharray:0 0" transform="translate(16.667473473097584 20.999999999999996)  rotate(0 83.33252652690241 79)" d="M115.3,29.93L110.23,29.93L110.23,37.76L115.3,37.76L115.3,29.93Z M121.97,29.27L129.8,29.27C131.64,29.27 133.13,27.77 133.13,25.93L133.13,3.33C133.13,1.49 131.64,0 129.8,0L36.87,0C35.02,0 33.53,1.49 33.53,3.33L33.53,25.93C33.53,27.77 35.02,29.27 36.87,29.27L44.7,29.27L44.7,38.43L17.73,38.43C16.19,38.38 14.81,39.38 14.4,40.87L3.6,79.93C3.56,80.22 3.56,80.51 3.6,80.8C3.61,85.42 5.5,89.84 8.83,93.03C9.95,94.09 11.22,94.98 12.6,95.67L12.6,151.33L3.33,151.33C1.49,151.33 0,152.83 0,154.67C0,156.51 1.49,158 3.33,158L163.33,158C165.17,158 166.67,156.51 166.67,154.67C166.67,152.83 165.17,151.33 163.33,151.33L154.07,151.33L154.07,95.87C159.72,93.27 163.34,87.62 163.33,81.4C163.37,81.11 163.37,80.82 163.33,80.53L152.4,40.87C151.98,39.38 150.61,38.38 149.07,38.43L121.97,38.43L121.97,29.27Z M108.8,78.03C110.64,78.03 112.14,79.53 112.14,81.37C112.14,86.58 116.36,90.8 121.57,90.8C124.07,90.83 126.48,89.85 128.24,88.07C130.02,86.31 131.03,83.91 131.04,81.4C131.04,79.56 132.53,78.07 134.37,78.07C136.21,78.07 137.7,79.56 137.7,81.4C137.7,86.6 141.91,90.81 147.1,90.83C149.58,90.86 151.96,89.88 153.7,88.13C155.38,86.47 156.37,84.23 156.47,81.87L146.47,45.2L131.14,45.2L135.1,66.83C135.43,68.64 134.24,70.36 132.44,70.7L131.84,70.7C130.21,70.73 128.8,69.57 128.5,67.97L124.3,45.13L108.84,45.13L110.87,67.03C110.95,67.92 110.68,68.8 110.11,69.48C109.54,70.16 108.72,70.59 107.84,70.67L107.54,70.67C105.81,70.67 104.36,69.36 104.2,67.63L102.14,45.1L86.67,45.1L86.67,67.33C86.67,69.17 85.18,70.67 83.34,70.67C81.5,70.67 80,69.17 80,67.33L80,45L64.5,45L62.44,67.53C62.28,69.26 60.83,70.57 59.1,70.57L58.8,70.57C57.92,70.49 57.1,70.06 56.53,69.38C55.96,68.7 55.69,67.82 55.77,66.93L57.8,45.03L42.34,45.03L38.14,67.87C37.84,69.47 36.43,70.63 34.8,70.6L34.2,70.6C32.4,70.26 31.21,68.54 31.54,66.73L35.5,45.1L20.17,45.1L10.17,81.23C10.28,83.89 11.41,86.4 13.34,88.23C15.12,89.96 17.52,90.9 20,90.83C25.04,90.6 28.99,86.44 28.97,81.4C28.97,79.56 30.46,78.07 32.3,78.07C34.14,78.07 35.64,79.56 35.64,81.4C35.64,84.77 37.43,87.89 40.35,89.57C43.27,91.26 46.87,91.26 49.79,89.57C52.71,87.89 54.5,84.77 54.5,81.4C54.5,79.56 56,78.07 57.84,78.07C59.68,78.07 61.17,79.56 61.17,81.4C60.96,84.9 62.71,88.22 65.71,90.03C68.71,91.85 72.46,91.85 75.46,90.03C78.46,88.22 80.21,84.9 80,81.4C80,79.56 81.5,78.07 83.34,78.07C85.18,78.07 86.67,79.56 86.67,81.4C86.69,86.58 90.89,90.78 96.07,90.8C101.27,90.78 105.47,86.56 105.47,81.37C105.47,79.53 106.96,78.03 108.8,78.03Z M40.2,22.6L126.47,22.6L126.47,6.67L40.23,6.67L40.2,22.6Z M147.4,151.33L147.4,97.43L147.1,97.43C142.12,97.44 137.41,95.12 134.37,91.16C133.93,91.71 133.46,92.23 132.97,92.73C129.97,95.76 125.87,97.46 121.6,97.43C116.6,97.43 111.88,95.1 108.84,91.13C108.41,91.69 107.94,92.23 107.44,92.73C104.44,95.76 100.36,97.45 96.1,97.43C91.1,97.43 86.38,95.1 83.34,91.13C82.91,91.69 82.44,92.23 81.94,92.73C78.94,95.76 74.84,97.46 70.57,97.43C65.58,97.43 60.88,95.11 57.84,91.16C57.4,91.71 56.93,92.23 56.44,92.73C53.44,95.77 49.34,97.46 45.07,97.43C40.07,97.43 35.35,95.1 32.3,91.13C31.88,91.7 31.41,92.24 30.9,92.73C28.07,95.6 24.24,97.29 20.2,97.43L19.27,97.43L19.27,151.33L97,151.33L97,107.36C97,105.52 98.5,104.03 100.34,104.03L128.6,104.03C130.44,104.03 131.94,105.52 131.94,107.36L131.94,151.33L147.4,151.33Z M51.37,37.83L56.47,37.83L56.47,30L51.37,29.93L51.37,37.83Z M63.1,38.5L103.57,38.5L103.57,29.33L63.13,29.33L63.1,38.5Z M103.67,151.33L125.27,151.33L125.27,110.7L103.67,110.7L103.67,151.33Z " /></g></g></g></svg>