<?xml version="1.0" standalone="no"?><!DOCTYPE svg PUBLIC "-//W3C//DTD SVG 1.1//EN" "http://www.w3.org/Graphics/SVG/1.1/DTD/svg11.dtd"><svg t="1684899543250" class="icon" viewBox="0 0 1024 1024" version="1.1" xmlns="http://www.w3.org/2000/svg" p-id="1665" xmlns:xlink="http://www.w3.org/1999/xlink" width="200" height="200"><path d="M336.816 296.48c-19.392 0-37.984 7.68-51.68 21.344l-115.76 115.52A72.736 72.736 0 0 0 148 484.8v185.92a37.968 37.968 0 0 0 38.048 37.888h59.888a119.584 119.584 0 0 1 115.216-87.36c54.88 0 101.2 36.96 115.216 87.36h119.792a119.584 119.584 0 0 1 115.216-87.36c54.88 0 101.2 36.96 115.2 87.36h7.376a37.968 37.968 0 0 0 38.048-37.888v-109.968H534.08a66.992 66.992 0 0 1-67.024-66.96V296.48h-130.24z m-96.896-23.952a137.184 137.184 0 0 1 96.896-40.048h162.24a32 32 0 0 1 32 32v229.328c0 1.568 1.28 2.96 3.024 2.96H904a32 32 0 0 1 32 32v141.968c0 56.336-45.76 101.888-102.048 101.888h-35.024a32 32 0 0 1-32-32c0-30.512-24.8-55.36-55.552-55.36a55.456 55.456 0 0 0-55.552 55.36 32 32 0 0 1-32 32H448.704a32 32 0 0 1-32-32c0-30.512-24.8-55.36-55.552-55.36a55.456 55.456 0 0 0-55.552 55.36 32 32 0 0 1-32 32h-87.552c-56.304 0-102.048-45.552-102.048-101.888v-185.92c0-36.32 14.464-71.12 40.16-96.784l115.76-115.504z" p-id="1666" fill="#1296db"></path><path d="M359.552 684A55.456 55.456 0 0 0 304 739.36c0 30.528 24.8 55.376 55.552 55.376a55.456 55.456 0 0 0 55.552-55.36c0-30.528-24.8-55.376-55.552-55.376zM240 739.36c0-65.984 53.6-119.36 119.552-119.36 65.968 0 119.552 53.376 119.552 119.36 0 66-53.584 119.376-119.552 119.376S240 805.36 240 739.376zM711.552 684A55.456 55.456 0 0 0 656 739.36c0 30.528 24.8 55.376 55.552 55.376a55.456 55.456 0 0 0 55.552-55.36c0-30.528-24.8-55.376-55.552-55.376zM592 739.36c0-65.984 53.6-119.36 119.552-119.36 65.968 0 119.552 53.376 119.552 119.36 0 66-53.584 119.376-119.552 119.376S592 805.36 592 739.376zM345.792 357.392a32 32 0 0 1-0.048 45.264l-71.136 70.976a32 32 0 1 1-45.216-45.296l71.152-70.992a32 32 0 0 1 45.248 0.048zM468 188a64 64 0 0 1 64-64H872a64 64 0 0 1 64 64v336a32 32 0 0 1-32 32H532a64 64 0 0 1-64-64v-304z m404 0H532v304H872v-304z" p-id="1667" fill="#1296db"></path><path d="M692 220a32 32 0 0 1 32 32v82.128h74.672a32 32 0 0 1 0 64H692a32 32 0 0 1-32-32V252a32 32 0 0 1 32-32z" p-id="1668" fill="#1296db"></path></svg>