<?xml version="1.0" standalone="no"?><!DOCTYPE svg PUBLIC "-//W3C//DTD SVG 1.1//EN"
        "http://www.w3.org/Graphics/SVG/1.1/DTD/svg11.dtd">
<svg xmlns:xlink="http://www.w3.org/1999/xlink" t="1709036168525" class="icon" viewBox="0 0 1518 1024" version="1.1"
     xmlns="http://www.w3.org/2000/svg"
     p-id="5667" width="296.484375" height="200">
    <path d="M559.027594 317.233694l158.791175-160.333749 0.055196-0.164619L671.876602 110.377738a270.647629 270.647629 0 0 0-385.39653-0.027113L81.552092 317.20658c-106.430816 107.476629-106.430816 281.66546 0 389.059779l204.927012 206.99346a270.75802 270.75802 0 0 0 385.369416 0l45.970249-46.46701 0.055196-0.055196-158.846371-160.388944c-106.45793-107.476629-106.45793-281.66546 0-389.114975"
          fill="#D5081C" p-id="5668"></path>
    <path d="M876.803613 317.233694L717.872997 156.899945h-0.08231L559.000481 317.20658c-106.45793 107.476629-106.45793 281.66546 0 389.142089l158.791175 160.360862h0.082309L876.749386 706.266359c106.430816-107.394319 106.430816-281.583151 0-389.032665"
          fill="#EA6108" p-id="5669"></path>
    <path d="M1352.495424 318.963158L1147.566475 112.107203a270.675711 270.675711 0 0 0-385.396529 0l-46.025445 46.356619v0.110391l158.873484 160.388945c106.430816 107.421433 106.430816 281.637378 0 389.032666L716.145469 868.438027v0.08231l45.998331 46.412783a270.75802 270.75802 0 0 0 385.450757 0l204.872785-206.939233c106.402734-107.394319 106.402734-281.582182 0-389.032666"
          fill="#F29700" p-id="5670"></path>
    <path d="M311.523415 654.400824H284.199619a3.66325 3.66325 0 0 1-3.663249-3.746527V353.289057a3.643883 3.643883 0 0 1 3.663249-3.66325h27.323796c2.092594 0 3.718445 1.652965 3.718445 3.66325v297.36524c0 2.093562-1.652965 3.746527-3.718445 3.746527m-51.562443-25.809303h-23.027248a3.691332 3.691332 0 0 1-3.690363-3.690363V379.015083c0-2.06548 1.651997-3.745559 3.690363-3.745559h23.027248c2.038367 0 3.690363 1.651997 3.690363 3.745559v245.857993a3.673902 3.673902 0 0 1-3.690363 3.691331m115.327003 23.990752c18.04027-30.298552 36.247096-70.898359 45.006746-110.782559l-33.934688-7.574396c-9.006578 41.123682-30.435088 85.77214-49.689663 114.308304-1.651997 2.506077 0.055196 5.894317 3.03092 5.894316h32.391146c1.294677 0 2.478964-0.66138 3.195539-1.845665"
          fill="#FEFEFE" p-id="5671"></path>
    <path d="M330.197951 442.917148h-77.316551a3.718445 3.718445 0 0 1-3.718445-3.690364v-27.599773c0-2.06548 1.708161-3.718445 3.718445-3.718446h77.316551c2.06548 0 3.691332 1.652965 3.691332 3.718446v27.599773a3.697142 3.697142 0 0 1-3.691332 3.718446m58.944138-0.028082a10.026246 10.026246 0 0 0-9.942968 10.080473v57.37445c0 5.536998 4.489248 10.081441 9.942968 10.081442h71.918026c5.536029 0 9.970082-4.544444 9.970082-10.080473v-57.374451a9.998164 9.998164 0 0 0-9.970082-10.053359h-71.889944l-0.028082-0.028082z m71.918026 112.600143h-71.889944a44.95155 44.95155 0 0 1-44.704623-45.144251v-57.374451c0-24.817718 20.052491-45.090024 44.676541-45.090024h71.918026c24.651163 0 44.703654 20.272306 44.703654 45.090024v57.374451c0 24.899059-20.052491 45.144251-44.703654 45.144251z m65.582144 99.213739h-27.985175a52.801925 52.801925 0 0 1-52.581142-53.049821v-28.287298c0-2.066449 1.680079-3.691332 3.718445-3.691332h27.350909a3.673902 3.673902 0 0 1 3.691332 3.691332v28.287298c0 9.888741 7.987879 17.986043 17.820456 17.986043h28.012289c2.011253 0 3.66325 1.652965 3.663249 3.718446v27.626887c0 2.06548-1.651997 3.718445-3.663249 3.718445M403.630469 385.349997l-15.287265-33.603514a3.718445 3.718445 0 0 0-3.304962-2.120676h-30.077769a3.718445 3.718445 0 0 0-3.389208 5.232938l15.232069 33.604481c0.606184 1.348905 1.900862 2.202985 3.360158 2.202986h30.105851c2.672633 0 4.435021-2.837251 3.360158-5.343329"
          fill="#FEFEFE" p-id="5672"></path>
    <path d="M480.47834 413.004966l25.009451-58.173335a3.718445 3.718445 0 0 0-3.360158-5.233906h-29.829873a3.664218 3.664218 0 0 0-3.388239 2.203954l-24.982337 58.228531c-1.045813 2.478964 0.716575 5.232937 3.38824 5.232937h29.802759a3.66325 3.66325 0 0 0 3.360157-2.258181m488.135046 108.826502h-27.378023a3.66325 3.66325 0 0 1-3.664218-3.718446V349.625807h31.042241a3.661313 3.661313 0 0 1 3.66325 3.66325v164.823965a3.66325 3.66325 0 0 1-3.66325 3.718446m226.769973 47.705524H916.665542a3.745559 3.745559 0 0 1-3.690364-3.773641v-27.54361c0-2.120676 1.651997-3.745559 3.690364-3.745559h278.745899c2.010285 0 3.66325 1.651997 3.66325 3.718446v27.570723c0 2.093562-1.652965 3.773641-3.66325 3.773641m-93.870411-60.982505h-27.378991a3.66325 3.66325 0 0 1-3.663249-3.663249V353.289057c0-2.010285 1.652965-3.691332 3.663249-3.691332h27.378991a3.673902 3.673902 0 0 1 3.691332 3.691332V504.891238c0 2.011253-1.652965 3.66325-3.691332 3.663249"
          fill="#FEFEFE" p-id="5673"></path>
    <path d="M1069.699905 654.400824h-27.378023a3.691332 3.691332 0 0 1-3.663249-3.746527v-94.917192c0-2.120676 1.651997-3.745559 3.663249-3.745559h27.378023c2.011253 0 3.664218 1.652965 3.664218 3.746527v94.917192c0 2.092594-1.652965 3.745559-3.664218 3.745559M937.598259 349.597725l-24.623081 50.957227v17.159076h27.54361V349.597725h-2.919561z"
          fill="#FEFEFE" p-id="5674"></path>
    <path d="M1038.245149 549.512582c-12.890611 25.451016-76.765562 54.37258-122.433688 64.866537a3.66325 3.66325 0 0 0-2.837251 3.580941v28.314412c0 2.314345 2.120676 4.131929 4.407907 3.664218 46.411815-9.860659 134.139044-42.33605 153.695743-88.637474a3.718445 3.718445 0 0 0-2.286263-4.902731l-26.002004-8.979465c-1.79047-0.605216-3.66325 0.331174-4.544444 2.066449"
          fill="#FEFEFE" p-id="5675"></path>
    <path d="M1196.23744 614.406233c-45.640044-10.52107-109.625387-39.442635-122.460802-64.893651-0.881194-1.79047-2.753974-2.72686-4.572526-2.093562l-25.918726 9.007547c-2.038367 0.633298-3.166489 2.946674-2.341459 4.874649 19.583812 46.329506 107.284896 78.776815 153.695743 88.637474a3.718445 3.718445 0 0 0 4.407907-3.691332v-28.287298a3.66325 3.66325 0 0 0-2.810137-3.580941m-13.992588-160.086821v-22.420095a3.691332 3.691332 0 0 0-3.690363-3.718445h-67.896489c-4.269434 0-5.122546-6.059904-1.101009-7.299386l70.071392-21.731602a3.691332 3.691332 0 0 0 2.616469-3.580941V373.341548a3.718445 3.718445 0 0 0-3.690363-3.746527h-181.377826a3.718445 3.718445 0 0 0-3.66325 3.746527v20.602512c0 2.06548 1.652965 3.718445 3.66325 3.718445h67.896489c4.241352 0 5.122546 6.059904 1.101976 7.299386l-70.07236 21.704488a3.773641 3.773641 0 0 0-2.589355 3.608054v22.228363c0 2.010285 1.652965 3.718445 3.66325 3.718446h76.655171c4.214238 0 5.151596 5.867203 1.184286 7.243222l-78.968548 26.581074a3.745559 3.745559 0 0 0-2.534159 3.579972v22.365868c0 2.011253 1.652965 3.718445 3.66325 3.718446h181.377826a3.691332 3.691332 0 0 0 3.690363-3.718446v-20.630593a3.718445 3.718445 0 0 0-3.690363-3.718446h-76.655171c-4.187124 0-5.151596-5.921431-1.157173-7.298417l79.023743-26.552024a3.745559 3.745559 0 0 0 2.478964-3.498631M792.910063 476.356043H631.336832a3.66325 3.66325 0 0 1-3.690363-3.718446v-27.626887c0-2.093562 1.624883-3.718445 3.690363-3.718445H792.910063a3.697142 3.697142 0 0 1 3.691331 3.718445v27.626887c0 2.093562-1.652965 3.718445-3.691331 3.718446"
          fill="#FEFEFE" p-id="5676"></path>
    <path d="M855.132049 427.299677c-22.392982-15.396688-47.100308-35.422066-75.718781-71.201451l-5.232937-6.500501H650.011368l-5.232937 7.024376c-23.853246 32.171331-47.458596 54.289303-75.663585 71.062978v40.15921l10.026245-5.563143c33.603514-18.454722 61.092896-42.528751 88.140713-77.619643h90.399862c32.501537 39.167625 60.37632 60.156506 85.716945 76.903067l11.733438 7.767097v-42.03199zM623.680127 542.075692c6.526646 48.670964 40.407107 80.263225 88.443804 80.263224 47.981502 0 81.915222-31.592261 88.415723-80.290338H623.70724l-0.027113 0.027114z m88.443804 115.327002c-73.184622 0-124.279354-54.619508-124.279353-132.927644v-13.771805a3.697142 3.697142 0 0 1 3.691331-3.718445H832.738099c2.038367 0 3.66325 1.652965 3.66325 3.718445v13.771805c0 78.308136-51.121846 132.927644-124.278386 132.927644z m-359.146629 91.915322h26.992621v-8.263857h-26.992621v8.262889z m76.682285-10.384533l13.55199-21.291973h11.651129v0.440597l-20.383666 29.885068v21.319087h-9.639876v-21.319087l-19.66709-29.885068v-0.440597h11.486511l13.001002 21.291973z m39.608221 5.040237c0.247896 8.538868 4.764258 17.573528 16.829839 17.573527s16.580974-9.199279 16.746561-17.683919c0.110391-8.648291-4.682917-18.398558-16.746561-18.398558-12.065581 0-17.023508 9.805463-16.802725 18.481836m42.996462-0.220783c-0.110391 13.413517-8.207694 26.717611-26.166623 26.717611-18.014125 0-26.359323-13.001002-26.359323-26.580106 0-13.6343 8.648291-27.2686 26.332209-27.268599 17.627755 0 26.387405 13.6343 26.193737 27.131094m19.721317-26.084313v42.61106h26.277014v9.03466h-35.944972v-51.64572h9.667958z m45.696208 0v42.61106h26.33221v9.03466h-35.973054v-51.64572h9.640844z m74.175239 51.644752h-38.285463v-51.644752h38.286431v9.420061h-28.755978v11.84383h27.709197v9.145052h-27.709197V759.701582h28.755978v9.58468z m55.474557-6.499533a26.910312 26.910312 0 0 1-19.419194 7.656705c-19.004742 0-27.074931-13.220816-27.103012-26.580106-0.110391-13.551022 8.621177-27.2686 27.103981-27.268599 6.913016 0 13.523908 2.699746 18.784927 7.932683l-6.473387 6.252605a17.352745 17.352745 0 0 0-12.312509-4.875618c-12.366736 0-17.738147 9.282557-17.627755 17.958929 0.055196 8.456558 4.957927 17.463137 17.627755 17.463137a18.895319 18.895319 0 0 0 12.863497-5.232937l6.555697 6.693201z m20.823294-36.276146H711.985458v-8.869073h42.088154v8.870041H737.820907v42.747597h-9.639876v-42.748565z m97.230569-8.813878V747.306764c0 15.286297-9.255443 23.136671-22.117972 23.13667-12.284427 0-22.724156-7.574396-22.724156-23.13667v-29.610059h9.557567V747.306764c0 9.199279 5.233906 14.240484 13.221785 14.240483s12.477127-5.371411 12.477127-14.240483v-29.610059h9.585649z m46.025445-0.164618h9.585649v51.727061h-5.976627v0.055196l-26.856084-34.870109v34.814913h-9.695072v-51.617638h7.822292l25.119842 32.006712V717.53015z m21.45756 51.782257h9.639876v-51.672834h-9.639876v51.672834z m30.325665-25.340624c0.247896 8.538868 4.793309 17.573528 16.856953 17.573527 12.03653 0 16.580974-9.199279 16.719447-17.683919 0.137505-8.648291-4.682917-18.398558-16.719447-18.398558-12.064612 0-17.077735 9.805463-16.856953 18.481836m43.023576-0.220783c-0.110391 13.413517-8.207694 26.717611-26.166623 26.717611-17.986043 0-26.33221-13.001002-26.33221-26.580106 0-13.6343 8.621177-27.2686 26.33221-27.268599 17.57256 0 26.359323 13.6343 26.166623 27.131094m43.684955-26.193736h9.612762v51.727061h-5.949513v0.055196l-26.910312-34.870109v34.814913h-9.640844v-51.617638h7.823261l25.064646 32.006712V717.53015z m38.09373 31.784961h26.965507v-8.262889h-26.993589l0.028082 8.262889z"
          fill="#FEFEFE" p-id="5677"></path>
</svg>