<svg width="200" height="200" xmlns="http://www.w3.org/2000/svg" clip-rule="evenodd">

    <g>
        <title>background</title>
        <rect fill="none" id="canvas_background" height="202" width="202" y="-1" x="-1"/>
    </g>
    <g>
        <title>Layer 1</title>
        <g fill="#FEFEFE" stroke="null" id="svg_2">
            <g stroke="null" id="svg_3">
                <path stroke="#ffffff" id="svg_1" d="m41.86331,141.264284a81.393384,82.289196 0 0 1 0,-116.850655c32.105169,-32.275651 84.164048,-32.275651 116.26922,0a81.393384,82.289196 0 0 1 0,116.858967l-58.134608,58.425331l-58.134608,-58.43364l-0.000003,0l0,-0.000003z" fill="#04ce40"/>
            </g>
        </g>
        <g stroke="null" id="svg_29">
            <path stroke="null" id="svg_12" fill="#FEFEFE" d="m38.631367,96.619217l-4.251821,0a0.570034,0.532271 0 0 1 -0.570034,-0.54437l0,-43.207199a0.56702,0.529456 0 0 1 0.570034,-0.532271l4.251821,0c0.325627,0 0.578623,0.240175 0.578623,0.532271l0,43.207199c0,0.304194 -0.257217,0.54437 -0.578623,0.54437m-8.023567,-3.750094l-3.583242,0a0.574403,0.536351 0 0 1 -0.574252,-0.53621l0,-35.727272c0,-0.300114 0.257066,-0.54423 0.574252,-0.54423l3.583242,0c0.317188,0 0.574252,0.240036 0.574252,0.54423l0,35.723192a0.571691,0.533818 0 0 1 -0.574252,0.536351m17.945891,3.485858c2.807224,-4.402382 5.640366,-10.301539 7.003445,-16.096717l-5.280535,-1.100561c-1.401503,5.975276 -4.735967,12.462701 -7.732146,16.609009c-0.257066,0.364134 0.00859,0.856445 0.471638,0.856444l5.040347,0c0.201462,0 0.385748,-0.096099 0.497252,-0.268175"/>
            <path stroke="null" id="svg_23" fill="#FEFEFE" d="m41.537289,65.890619l-12.031132,0a0.578623,0.540291 0 0 1 -0.578623,-0.536211l0,-4.010249c0,-0.300114 0.265806,-0.54029 0.578623,-0.54029l12.031132,0c0.321407,0 0.574403,0.240175 0.574403,0.54029l0,4.010249a0.575307,0.537195 0 0 1 -0.574403,0.540291m9.172224,-0.00408a1.560172,1.456815 0 0 0 -1.547213,1.464693l0,8.336513c0,0.804527 0.698567,1.464834 1.547213,1.464834l11.191074,0c0.861455,0 1.551433,-0.660308 1.551433,-1.464693l0,-8.336513a1.555801,1.452734 0 0 0 -1.551433,-1.460754l-11.186704,0l-0.004369,-0.00408zm11.191074,16.360812l-11.186704,0a6.994855,6.531465 0 0 1 -6.95643,-6.559464l0,-8.336513c0,-3.606017 3.120343,-6.551584 6.952061,-6.551584l11.191074,0c3.835938,0 6.956281,2.945567 6.956281,6.551584l0,8.336513c0,3.617836 -3.120343,6.559464 -6.956281,6.559464zm10.205157,14.415766l-4.354739,0a8.216441,7.672124 0 0 1 -8.182086,-7.708144l0,-4.110148c0,-0.300255 0.261435,-0.536351 0.578623,-0.536351l4.256041,0a0.571691,0.533818 0 0 1 0.574403,0.536351l0,4.110148c0,1.436835 1.242984,2.613373 2.773018,2.613373l4.358958,0c0.31297,0 0.570034,0.240177 0.570034,0.540291l0,4.01419c0,0.300114 -0.257066,0.54029 -0.570034,0.54029m-19.145931,-39.141091l-2.378833,-4.882595a0.578623,0.540291 0 0 0 -0.514281,-0.308134l-4.680364,0a0.578623,0.540291 0 0 0 -0.527389,0.760345l2.370242,4.882736c0.094328,0.195995 0.295792,0.320093 0.52287,0.320093l4.684734,0c0.415886,0 0.690128,-0.412253 0.52287,-0.776386"/>
            <path stroke="null" id="svg_24" fill="#FEFEFE" d="m64.922234,61.544376l3.891689,-8.452592a0.578623,0.540291 0 0 0 -0.52287,-0.760486l-4.641789,0a0.570185,0.532412 0 0 0 -0.52724,0.320234l-3.887471,8.460611c-0.162737,0.360193 0.111506,0.760347 0.52724,0.760347l4.63757,0a0.570034,0.532271 0 0 0 0.52287,-0.328114m75.958089,15.812501l-4.260261,0a0.570034,0.532271 0 0 1 -0.570183,-0.540291l0,-24.481208l4.830444,0a0.569732,0.531989 0 0 1 0.570034,0.532271l0,23.948938a0.570034,0.532271 0 0 1 -0.570034,0.540291m35.287394,6.931617l-43.370934,0a0.582842,0.54423 0 0 1 -0.574252,-0.54831l0,-4.002089c0,-0.308135 0.257064,-0.54423 0.574252,-0.54423l43.375304,0c0.312819,0 0.570034,0.240036 0.570034,0.540291l0,4.006028c0,0.304194 -0.257215,0.54831 -0.570034,0.54831m-14.607058,-8.860763l-4.260411,0a0.570034,0.532271 0 0 1 -0.570034,-0.532271l0,-22.027812c0,-0.292095 0.257215,-0.536351 0.570034,-0.536351l4.260411,0a0.571691,0.533818 0 0 1 0.574403,0.536351l0,22.027812c0,0.292235 -0.257215,0.532271 -0.574403,0.532271"/>
            <path stroke="null" id="svg_25" fill="#FEFEFE" d="m156.610269,96.619217l-4.26026,0a0.574403,0.536351 0 0 1 -0.570034,-0.54437l0,-13.791477c0,-0.308135 0.257066,-0.54423 0.570034,-0.54423l4.26026,0c0.31297,0 0.570185,0.240175 0.570185,0.54437l0,13.791479c0,0.304054 -0.257215,0.544229 -0.570185,0.544229m-20.556172,-44.287919l-3.831567,7.404089l0,2.493216l4.286027,0l0,-9.897305l-0.454309,0l-0.000151,0z"/>
            <path stroke="null" id="svg_26" fill="#FEFEFE" d="m151.715635,81.378945c-2.005892,3.698036 -11.945394,7.900341 -19.051755,9.425115a0.570034,0.532271 0 0 0 -0.441501,0.520311l0,4.114087c0,0.336275 0.329996,0.60037 0.685909,0.532412c7.222084,-1.432755 20.87321,-6.151432 23.916403,-12.879033a0.578623,0.540291 0 0 0 -0.355762,-0.712369l-4.046141,-1.304716c-0.278613,-0.087939 -0.570034,0.048119 -0.707155,0.300255"/>
            <path stroke="null" id="svg_27" fill="#FEFEFE" d="m176.300619,90.807999c-7.10199,-1.528713 -17.058671,-5.731018 -19.055973,-9.429054c-0.137122,-0.260155 -0.428543,-0.396213 -0.711526,-0.304194l-4.03318,1.308798c-0.317188,0.092019 -0.492734,0.428151 -0.364352,0.708287c3.047412,6.731681 16.694469,11.446278 23.916403,12.879033a0.578623,0.540291 0 0 0 0.685909,-0.536351l0,-4.110148a0.570034,0.532271 0 0 0 -0.437282,-0.520311m-2.17737,-23.260631l0,-3.257643a0.574403,0.536351 0 0 0 -0.574252,-0.54029l-10.565289,0c-0.664361,0 -0.797114,-0.880506 -0.171327,-1.060602l10.903722,-3.157604a0.574403,0.536351 0 0 0 0.407146,-0.520311l0,-3.225703a0.578623,0.540291 0 0 0 -0.574252,-0.544371l-28.223979,0a0.578623,0.540291 0 0 0 -0.570034,0.544371l0,2.993547c0,0.300114 0.257217,0.54029 0.570034,0.54029l10.565289,0c0.659991,0 0.797114,0.880506 0.171478,1.060602l-10.903873,3.153665a0.587211,0.54831 0 0 0 -0.402927,0.52425l0,3.229784c0,0.292094 0.257217,0.54029 0.570034,0.54029l11.928216,0c0.655773,0 0.801634,0.852505 0.184286,1.052441l-12.288198,3.862234a0.582842,0.54423 0 0 0 -0.394337,0.52017l0,3.249763c0,0.292235 0.257217,0.54029 0.570034,0.54029l28.223979,0a0.574403,0.536351 0 0 0 0.574252,-0.54029l0,-2.997628a0.578623,0.540291 0 0 0 -0.574252,-0.54029l-11.928216,0c-0.651554,0 -0.801634,-0.860384 -0.180066,-1.060461l12.296786,-3.858011a0.582842,0.54423 0 0 0 0.385748,-0.508351m-60.583903,3.205723l-25.14221,0a0.570034,0.532271 0 0 1 -0.574252,-0.54029l0,-4.01419c0,-0.304194 0.252846,-0.54029 0.574252,-0.54029l25.14221,0a0.575307,0.537195 0 0 1 0.574403,0.54029l0,4.01419c0,0.304194 -0.257215,0.54029 -0.574403,0.54029"/>
            <path stroke="null" id="svg_28" fill="#FEFEFE" d="m123.221633,63.621398c-3.484544,-2.23714 -7.329221,-5.14683 -11.782505,-10.345577l-0.814291,-0.944525l-19.321779,0l-0.814291,1.020643c-3.711775,4.674498 -7.384972,7.888241 -11.773916,10.325458l0,5.835137l1.560171,-0.808325c5.229001,-2.681474 9.506591,-6.179433 13.715467,-11.278142l14.067011,0c5.057523,5.691061 9.395085,8.740747 13.338307,11.174024l1.825826,1.12856l0,-6.107253zm-36.015946,16.676966c1.015603,7.071897 6.287699,11.662255 13.76263,11.662255c7.466341,0 12.746726,-4.590359 13.758261,-11.666195l-27.516672,0l-0.004219,0.00394zm13.76263,16.757024c-11.388168,0 -19.338956,-7.936219 -19.338956,-19.314399l0,-2.001044a0.575307,0.537194 0 0 1 0.574404,-0.540292l37.533173,0c0.317188,0 0.570034,0.240177 0.570034,0.540292l0,2.001044c0,11.37818 -7.955008,19.314399 -19.338807,19.314399l0.000151,0zm-55.886361,13.355307l4.200288,0l0,-1.20074l-4.200288,0l0,1.200599l0,0.000141zm11.932436,-1.508876l2.108808,-3.093725l1.813018,0l0,0.064019l-3.171878,4.342302l0,3.097666l-1.50005,0l0,-3.097666l-3.060371,-4.342302l0,-0.064019l1.787402,0l2.023071,3.093725zm6.163386,0.732348c0.038574,1.240698 0.741361,2.553435 2.618871,2.553435s2.580144,-1.336656 2.605912,-2.569476c0.017178,-1.256597 -0.728704,-2.673312 -2.605912,-2.673312c-1.87751,0 -2.649007,1.424734 -2.614651,2.685413m6.690626,-0.032081c-0.017178,1.948986 -1.277189,3.882072 -4.071755,3.882072c-2.803155,0 -4.101742,-1.889047 -4.101742,-3.862092c0,-1.981064 1.34575,-3.96213 4.097523,-3.96213c2.743033,0 4.106111,1.981066 4.075974,3.94215m3.06881,-3.790053l0,6.191392l4.088933,0l0,1.312736l-5.593352,0l0,-7.504128l1.504419,0zm7.11073,0l0,6.191392l4.097523,0l0,1.312736l-5.597723,0l0,-7.504128l1.5002,0zm11.542317,7.503987l-5.957554,0l0,-7.503987l5.957705,0l0,1.368736l-4.474682,0l0,1.720909l4.311792,0l0,1.328777l-4.311792,0l0,1.69291l4.474682,0l0,1.392655l-0.000151,0zm8.632327,-0.944382a4.18748,3.910071 0 0 1 -3.021796,1.11252c-2.957304,0 -4.213096,-1.920986 -4.217466,-3.862092c-0.017178,-1.968965 1.341531,-3.96213 4.217617,-3.96213c1.075726,0 2.104439,0.392274 2.923099,1.152619l-1.007316,0.908505a2.700239,2.521355 0 0 0 -1.915934,-0.708429c-1.924373,0 -2.760212,1.348757 -2.743032,2.609434c0.008587,1.228739 0.771495,2.537397 2.743032,2.537397a2.940277,2.745492 0 0 0 2.001673,-0.760347l1.020123,0.972522zm3.240288,-5.270929l-2.520324,0l0,-1.288677l6.549286,0l0,1.288818l-2.529063,0l0,6.211231l-1.50005,0l0,-6.211372l0.000151,0zm15.129928,-1.280656l0,4.302344c0,2.221101 -1.440229,3.361762 -3.44175,3.361761c-1.911565,0 -3.536078,-1.10056 -3.536078,-3.361761l0,-4.302344l1.487241,0l0,4.302344c0,1.336656 0.814441,2.069145 2.057425,2.069145s1.941551,-0.780467 1.941551,-2.069145l0,-4.302344l1.491611,0zm7.161962,-0.023919l1.491611,0l0,7.515947l-0.930016,0l0,0.008019l-4.179041,-5.066629l0,5.05861l-1.508639,0l0,-7.500049l1.217218,0l3.908867,4.650578l0,-4.666759l0,0.000282zm3.338985,7.523966l1.500049,0c0,-2.50269 0,-5.005378 0,-7.508068l-1.500049,0l0,7.508068zm4.718939,-3.681994c0.038574,1.240698 0.745881,2.553435 2.623089,2.553435c1.87299,0 2.580144,-1.336656 2.601694,-2.569476c0.021396,-1.256597 -0.728704,-2.673312 -2.601694,-2.673312c-1.877358,0 -2.657444,1.424734 -2.623089,2.685413m6.694845,-0.032081c-0.017178,1.948986 -1.277189,3.882072 -4.071756,3.882072c-2.798785,0 -4.097523,-1.889047 -4.097523,-3.862092c0,-1.981064 1.341532,-3.96213 4.097523,-3.96213c2.734444,0 4.101742,1.981066 4.071756,3.94215m6.797762,-3.805951l1.495829,0l0,7.515947l-0.925795,0l0,0.008019l-4.18748,-5.066629l0,5.05861l-1.5002,0l0,-7.500049l1.217368,0l3.900279,4.650578l0,-4.666759l0,0.000282zm5.927718,4.618358l4.19607,0l0,-1.200599l-4.200439,0l0.004369,1.200599z"/>
        </g>
    </g>
</svg>