<?xml version="1.0" encoding="UTF-8"?>
<svg width="24px" height="24px" viewBox="0 0 24 24" version="1.1" xmlns="http://www.w3.org/2000/svg" xmlns:xlink="http://www.w3.org/1999/xlink">
    <!-- Generator: Sketch 52.5 (67469) - http://www.bohemiancoding.com/sketch -->
    <title>ic_mima</title>
    <desc>Created with Sketch.</desc>
    <g id="Page-1" stroke="none" stroke-width="1" fill="none" fill-rule="evenodd">
        <g id="账号登录" transform="translate(-882.000000, -489.000000)" fill-rule="nonzero">
            <g id="分组-2" transform="translate(882.000000, 316.000000)">
                <g id="input/login" transform="translate(0.000000, 173.000000)">
                    <g id="ic/homeuser-">
                        <g id="ic/mima">
                            <g id="分组" transform="translate(2.000000, 2.000000)">
                                <path d="M10.6770359,10.8619373 C9.88544884,10.8619373 9.24079811,11.5265669 9.24079811,12.3504019 C9.24079811,12.9423283 9.57815973,13.4477 10.0591163,13.6865519 L10.0591163,15.3204053 C10.0591163,15.67348 10.3363499,15.9573319 10.6736945,15.9573319 C11.0143806,15.9573319 11.2882727,15.6700171 11.2882727,15.3204053 L11.2882727,13.6865519 C11.7725877,13.4477 12.1065909,12.9423283 12.1065909,12.3504019 C12.1099323,11.5265494 11.4686399,10.8619373 10.6770359,10.8619373 Z" id="路径" fill="#3B77E3"></path>
                                <path d="M4.32422321,8 L16.6190612,8 C17.2970919,8 18,8.56770379 18,9.27385304 L18,17.6569452 C18,18.3596315 17.2970919,19 16.6190612,19 L4.32420625,19 C3.64617555,19 3,18.3596315 3,17.6569452 L3.00001696,9.27385304 C3.00001696,8.5711491 3.64619251,8 4.32422321,8 Z M16.025995,16 L16.025995,11 C16.025995,10.2972961 15.8857076,10 15.2076768,10 L5.83667782,10 C5.15863015,10 5.01835964,10.2972961 5.01835964,11 L5.01835964,16 C5.01835964,16.7027039 5.15864711,17 5.83667782,17 L15.2076768,17 C15.8857245,17 16.025995,16.7026864 16.025995,16 Z" id="合并形状" fill="#CED0DA"></path>
                                <path d="M5.28947773,7.11114973 C5.84394486,4.67768401 7.95153058,2.86384791 10.4699546,2.86384791 C12.4372528,2.86384791 14.1507242,3.97499764 15.0725915,5.61922221 C15.1694409,5.84422247 15.5075127,6 15.7580321,6 C16.0987182,6 16.6187273,5.47392163 16.3252959,4.83701792 C16.2633974,4.70266497 16.2115474,4.59654129 16.1414121,4.49268961 C15.0091221,2.46422436 12.8981949,1.0900001 10.4699546,1.0900001 C7.29687264,1.0900001 4.65820952,3.34692851 4.04697268,6.44500634 C4.04363129,6.45885791 4.0402899,6.46922902 4.0402899,6.4830806 C4.03694851,6.49693218 4.03360712,6.51422907 4.03026573,6.52808065 C4.03026573,6.54885802 4.03026573,6.56961781 4.03026573,6.59039518 C4.03360712,6.95385849 4.07391371,7.44853408 4.43914746,7.56418599 C4.80438121,7.6798379 5.27945356,7.46424194 5.28947773,7.11114973 Z" id="路径" fill="#3B77E3"></path>
                                <rect id="矩形" x="0" y="0" width="20" height="20"></rect>
                            </g>
                        </g>
                    </g>
                </g>
            </g>
        </g>
    </g>
</svg>