<?xml version="1.0" encoding="UTF-8"?>
<svg width="24px" height="24px" viewBox="0 0 24 24" version="1.1" xmlns="http://www.w3.org/2000/svg" xmlns:xlink="http://www.w3.org/1999/xlink">
    <!-- Generator: Sketch 52.5 (67469) - http://www.bohemiancoding.com/sketch -->
    <title>ic_phone</title>
    <desc>Created with Sketch.</desc>
    <g id="Page-1" stroke="none" stroke-width="1" fill="none" fill-rule="evenodd">
        <g id="手机号登录" transform="translate(-882.000000, -421.000000)">
            <g id="分组-2" transform="translate(882.000000, 316.000000)">
                <g id="input/login" transform="translate(0.000000, 105.000000)">
                    <g id="分组-2">
                        <g id="ic_phone">
                            <g id="分组" transform="translate(6.000000, 3.000000)">
                                <path d="M2,3 L2,16 C2,16.5522847 2.44771525,17 3,17 L9,17 C9.55228475,17 10,16.5522847 10,16 L10,3 C10,2.44771525 9.55228475,2 9,2 L3,2 C2.44771525,2 2,2.44771525 2,3 Z M2,0 L10,0 C11.1045695,0 12,0.945176639 12,2.11111111 L12,16.8888889 C12,18.0548234 11.1045695,19 10,19 L2,19 C0.8954305,19 0,18.0548234 0,16.8888889 L0,2.11111111 C0,0.945176639 0.8954305,0 2,0 Z M3,2 L9,2 L9,2.5 C9,2.77614237 8.77614237,3 8.5,3 L3.5,3 C3.22385763,3 3,2.77614237 3,2.5 L3,2 Z" id="矩形" fill="#CED0DA" fill-rule="nonzero"></path>
                                <rect id="矩形" fill="#3B77E3" x="3" y="15" width="6" height="1"></rect>
                            </g>
                            <rect id="矩形" x="0" y="0" width="24" height="24"></rect>
                        </g>
                    </g>
                </g>
            </g>
        </g>
    </g>
</svg>