<?xml version="1.0" encoding="UTF-8"?>
<svg width="24px" height="24px" viewBox="0 0 24 24" version="1.1" xmlns="http://www.w3.org/2000/svg" xmlns:xlink="http://www.w3.org/1999/xlink">
    <!-- Generator: Sketch 52.5 (67469) - http://www.bohemiancoding.com/sketch -->
    <title>ic_yanzhengma</title>
    <desc>Created with Sketch.</desc>
    <g id="Page-1" stroke="none" stroke-width="1" fill="none" fill-rule="evenodd">
        <g id="账号登录" transform="translate(-882.000000, -557.000000)" fill-rule="nonzero">
            <g id="分组-2" transform="translate(882.000000, 316.000000)">
                <g id="input/login" transform="translate(0.000000, 241.000000)">
                    <g id="分组">
                        <g id="分组-2" transform="translate(2.000000, 2.000000)">
                            <path d="M10,2 L5.2,2 C5.08954305,2 5,2.08954305 5,2.2 L5,3 C5,3.61286606 4.65373688,4.17313156 4.10557281,4.4472136 L3.60342386,4.69832992 C3.23731905,4.88138233 3.01973944,5.2690728 3.05421048,5.67693633 C3.43500553,10.1825285 4.08360204,12.9568831 5,14 C5.88595075,15.0084595 7.3707282,16.2198133 9.45433236,17.6340615 L9.45432844,17.6340673 C9.78587243,17.859103 10.2197331,17.864503 10.5567753,17.6477886 C12.6717611,16.287876 14.152836,15.0719465 15,14 C15.8755372,12.8921519 16.5217808,10.1198856 16.9387309,5.6832012 L16.938769,5.68320477 C16.9773905,5.2722405 16.7595457,4.87977286 16.3903485,4.69517424 L15.8944272,4.4472136 C15.3462631,4.17313156 15,3.61286606 15,3 L15,2.2 C15,2.08954305 14.9104569,2 14.8,2 L10,2 Z" id="路径-16" stroke="#CED0DA" stroke-width="2"></path>
                            <path d="M14.6047244,7.28482568 L14.6047244,7.28482568 C14.9997045,7.67084273 15.0069705,8.30396602 14.6209534,8.69894612 L10.6038184,12.8093562 C10.2499937,13.1713965 9.68143147,13.2119223 9.27983393,12.9037268 L6.39124082,10.6869517 C5.95310436,10.3507153 5.87049799,9.72296214 6.20673433,9.28482568 L6.20673433,9.28482568 C6.54297068,8.84668921 7.17072388,8.76408284 7.60886035,9.10031919 L9.79359686,10.776938 L13.190604,7.30105471 C13.576621,6.90607461 14.2097443,6.89880862 14.6047244,7.28482568 Z" id="路径-17" fill="#3B77E3"></path>
                            <rect id="矩形" x="0" y="0" width="20" height="20"></rect>
                        </g>
                    </g>
                </g>
            </g>
        </g>
    </g>
</svg>