<?xml version="1.0" encoding="UTF-8"?>
<svg width="44px" height="44px" viewBox="0 0 44 44" version="1.1" xmlns="http://www.w3.org/2000/svg" xmlns:xlink="http://www.w3.org/1999/xlink">
    <!-- Generator: Sketch 52.5 (67469) - http://www.bohemiancoding.com/sketch -->
    <title>logo</title>
    <desc>Created with Sketch.</desc>
    <defs>
        <linearGradient x1="100%" y1="100%" x2="0%" y2="1.72254642e-14%" id="linearGradient-1">
            <stop stop-color="#3B77E3" offset="0%"></stop>
            <stop stop-color="#FF572E" offset="100%"></stop>
        </linearGradient>
    </defs>
    <g id="Page-1" stroke="none" stroke-width="1" fill="none" fill-rule="evenodd">
        <g id="账号登录" transform="translate(-825.000000, -217.000000)" fill-rule="nonzero">
            <g id="分组-4" transform="translate(825.000000, 211.000000)">
                <g id="分组-3" transform="translate(0.000000, 6.000000)">
                    <g id="分组">
                        <path d="M10.4811679,3.73917085 L10.4811679,3.73917085 C11.9140028,3.74057009 13.0770436,4.89826155 13.0850483,6.33107482 L13.2498143,35.8239011 C13.2577514,37.2446185 12.1124666,38.4027717 10.6917493,38.4107088 C10.6861215,38.4107402 10.6804937,38.4107532 10.6748658,38.4107477 L10.6748658,38.4107477 C9.24203086,38.4093484 8.07899006,37.251657 8.07098543,35.8188437 L7.90621937,6.32601742 C7.89828232,4.90530005 9.04356706,3.74714681 10.4642844,3.73920976 C10.4699122,3.73917832 10.47554,3.73916535 10.4811679,3.73917085 Z" id="矩形" fill="url(#linearGradient-1)" opacity="0.80076" transform="translate(10.578017, 21.074959) rotate(25.000000) translate(-10.578017, -21.074959) "></path>
                        <path d="M22.4867852,3.85127042 L22.4867852,3.85127042 C23.9242191,3.85267415 25.0954236,5.00561983 25.1194111,6.44285423 L25.6091147,35.783901 C25.6325618,37.1887579 24.5127079,38.3466272 23.1078509,38.3700743 C23.0928725,38.3703243 23.0778922,38.370442 23.0629117,38.3704274 L23.0629117,38.3704274 C21.6254778,38.3690236 20.4542733,37.216078 20.4302858,35.7788436 L19.9405822,6.43779683 C19.9171351,5.03293985 21.036989,3.8750706 22.441846,3.85162347 C22.4568244,3.85137348 22.4718047,3.85125579 22.4867852,3.85127042 Z" id="矩形" fill="#3B77E3" opacity="0.799016" transform="translate(22.774848, 21.110849) scale(-1, 1) rotate(25.000000) translate(-22.774848, -21.110849) "></path>
                        <path d="M23.434472,3.7485723 L23.434472,3.7485723 C24.867307,3.74997154 26.0303478,4.907663 26.0383524,6.34047627 L26.2031185,35.8333026 C26.2110555,37.2540199 25.0657708,38.4121732 23.6450534,38.4201102 C23.6394257,38.4201417 23.6337978,38.4201546 23.62817,38.4201491 L23.62817,38.4201491 C22.195335,38.4187499 21.0322942,37.2610584 21.0242896,35.8282452 L20.8595235,6.33541887 C20.8515865,4.9147015 21.9968712,3.75654827 23.4175886,3.74861122 C23.4232163,3.74857978 23.4288442,3.7485668 23.434472,3.7485723 Z" id="矩形" fill="url(#linearGradient-1)" opacity="0.80076" transform="translate(23.531321, 21.084361) rotate(25.000000) translate(-23.531321, -21.084361) "></path>
                        <path d="M34.0629188,4.15369065 L34.0629188,4.15369065 C35.5066987,4.15510058 36.6845459,5.31030457 36.7139779,6.7537851 L37.179675,29.593684 C37.2083074,30.9979503 36.0931358,32.1595444 34.6888695,32.1881768 C34.6707628,32.188546 34.6526527,32.1887218 34.6345423,32.1887041 L34.6345423,32.1887041 C33.1907624,32.1872942 32.0129151,31.0320902 31.9834831,29.5886096 L31.5177861,6.74871075 C31.4891536,5.34444439 32.6043252,4.18285039 34.0085916,4.15421792 C34.0266983,4.15384873 34.0448084,4.15367296 34.0629188,4.15369065 Z" id="矩形" fill="#3B77E3" opacity="0.799016" transform="translate(34.348731, 18.171197) scale(-1, 1) rotate(25.000000) translate(-34.348731, -18.171197) "></path>
                        <circle id="椭圆形" fill="#3B77E3" cx="41.5" cy="34.5" r="2.5"></circle>
                        <rect id="矩形" x="0" y="0" width="44" height="44"></rect>
                    </g>
                </g>
            </g>
        </g>
    </g>
</svg>